<svg viewBox="0 0 18 18" fill="none" xmlns="http://www.w3.org/2000/svg">
<g clip-path="url(#clip0_1208_5707)">
<path d="M12.6006 10.8281C11.6725 10.8281 10.9131 11.5875 10.9131 12.5156C10.9131 13.4437 11.6725 14.2031 12.6006 14.2031C13.5287 14.2031 14.2881 13.4437 14.2881 12.5156C14.2881 11.5875 13.5287 10.8281 12.6006 10.8281ZM12.6006 12.9656C12.3756 12.9656 12.1787 12.7687 12.1787 12.5437C12.1787 12.3187 12.3756 12.1219 12.6006 12.1219C12.8256 12.1219 13.0225 12.3187 13.0225 12.5437C13.0225 12.7687 12.8256 12.9656 12.6006 12.9656Z" fill="#DEE4EE"/>
<path d="M17.1285 13.2186L16.4254 12.8529C16.4254 12.7404 16.4535 12.6279 16.4535 12.4873C16.4535 12.3748 16.4535 12.2342 16.4254 12.1217L17.1285 11.7279C17.4379 11.5311 17.5785 11.1654 17.4379 10.7998C17.4379 10.7717 17.4098 10.7436 17.4098 10.7154L16.5379 9.25293C16.341 8.94355 15.9754 8.83105 15.6379 8.94355C15.6098 8.94355 15.5816 8.97168 15.5535 8.97168L14.8504 9.36543C14.7098 9.25293 14.5691 9.14043 14.4004 9.02793V8.60606C14.4004 8.04355 13.9504 7.59355 13.3879 7.59355H11.8129C11.3348 7.59355 10.9129 7.93105 10.8004 8.40918C10.0973 7.67793 9.28164 7.17168 8.40977 6.8623C9.39414 6.27168 10.0691 5.1748 10.0691 3.9373C10.0691 2.05293 8.55039 0.53418 6.66602 0.53418C4.78164 0.53418 3.26289 2.08105 3.26289 3.9373C3.26289 5.1748 3.93789 6.27168 4.92227 6.8623C3.90977 7.1998 3.00977 7.81855 2.27852 8.69043C1.15352 10.0123 0.534766 11.8404 0.478516 13.8654C0.478516 14.1186 0.619141 14.3436 0.816016 14.4561C1.51914 14.7936 3.99414 15.9467 6.63789 15.9467C7.28477 15.9467 7.93164 15.8904 8.60664 15.7779C8.80352 16.0592 9.16914 16.1717 9.47852 16.0311C9.50664 16.0311 9.53477 16.0029 9.56289 16.0029L10.266 15.6092C10.4066 15.7217 10.5473 15.8342 10.7441 15.9467V16.4529C10.7441 17.0154 11.1941 17.4654 11.7566 17.4654H13.3035C13.866 17.4654 14.316 17.0154 14.316 16.4529V15.9186C14.4848 15.8061 14.6254 15.6936 14.766 15.5811L15.4129 15.9467C15.8629 16.1998 16.2848 16.0311 16.4816 15.7217L17.3535 14.2592C17.466 14.0904 17.4941 13.8936 17.4379 13.6967C17.4379 13.4717 17.2973 13.3029 17.1285 13.2186ZM6.66602 1.7998C7.84727 1.7998 8.80352 2.75605 8.80352 3.9373C8.80352 5.11855 7.84727 6.0748 6.66602 6.0748C5.48477 6.0748 4.52852 5.11855 4.52852 3.9373C4.52852 2.75605 5.48477 1.7998 6.66602 1.7998ZM1.77227 13.4998C1.88477 11.9529 2.39102 10.5467 3.23477 9.53418C4.13477 8.46543 5.34414 7.8748 6.66602 7.8748C7.76289 7.8748 8.77539 8.29668 9.61914 9.05606C9.19727 8.85918 8.80352 9.02793 8.60664 9.30918L7.76289 10.7717C7.65039 10.9404 7.62227 11.1373 7.67852 11.3342C7.73477 11.5311 7.84727 11.6998 8.04414 11.7842L8.74727 12.1779C8.74727 12.2904 8.71914 12.4029 8.71914 12.5436C8.71914 12.6561 8.71914 12.7686 8.71914 12.8811L7.98789 13.2748C7.67852 13.4717 7.53789 13.8373 7.67852 14.2029C7.67852 14.2311 7.70664 14.2592 7.70664 14.2873L7.90352 14.6248C7.48164 14.6811 7.05977 14.7092 6.63789 14.7092C4.64102 14.6529 2.70039 13.8936 1.77227 13.4998ZM15.1598 12.0936C15.1879 12.2061 15.1879 12.3467 15.1879 12.4873C15.1879 12.6279 15.1879 12.7686 15.1598 12.8811C15.1035 13.2467 15.2723 13.6404 15.6098 13.8092L16.0316 14.0623L15.7223 14.5967L15.216 14.3154C14.9066 14.1467 14.5129 14.1748 14.2598 14.3998C14.1754 14.4561 14.1191 14.5123 14.0629 14.5686C13.9223 14.7092 13.8098 14.7654 13.7254 14.8217C13.3879 14.9904 13.1348 15.3561 13.1348 15.7498V16.1998H12.066V15.7779C12.066 15.3842 11.841 15.0186 11.4754 14.8498C11.3629 14.7936 11.2504 14.7092 11.1098 14.5967C11.0535 14.5404 10.9691 14.4842 10.9129 14.4279C10.6316 14.2029 10.266 14.1748 9.95664 14.3436L9.61914 14.5404C9.53477 14.4561 9.45039 14.4279 9.33789 14.3998L9.14102 14.0904L9.59102 13.8373C9.90039 13.6686 10.0973 13.3029 10.041 12.9373C10.0129 12.7967 10.0129 12.6561 10.0129 12.5154C10.0129 12.3467 10.0129 12.2342 10.041 12.1217C10.0973 11.7279 9.92852 11.3623 9.59102 11.1936L9.14102 10.9404L9.45039 10.4061L9.95664 10.6873C10.266 10.8561 10.6598 10.8279 10.9129 10.6029C10.9691 10.5467 11.0535 10.4904 11.1098 10.4342C11.2504 10.2936 11.3629 10.2373 11.4754 10.1529C11.841 9.98418 12.066 9.61855 12.066 9.2248V8.85918H13.1348V9.19668C13.1348 9.59043 13.3598 9.95605 13.7254 10.1248C13.8379 10.1811 13.9223 10.2654 14.0629 10.3779C14.1191 10.4342 14.2035 10.4904 14.2598 10.5467C14.541 10.7717 14.9066 10.7998 15.216 10.6311L15.7223 10.3498L16.0316 10.8842L15.5816 11.1373C15.2723 11.3342 15.0754 11.6998 15.1598 12.0936Z" fill="#DEE4EE"/>
</g>
<defs>
<clipPath id="clip0_1208_5707">
<rect width="18" height="18" fill="white"/>
</clipPath>
</defs>
</svg>
