<svg viewBox="0 0 18 18" fill="none" xmlns="http://www.w3.org/2000/svg">
<path d="M4.27578 10.7996H6.07578C6.41328 10.7996 6.72266 10.5184 6.72266 10.1527C6.72266 9.78711 6.44141 9.50586 6.07578 9.50586H4.27578C3.93828 9.50586 3.62891 9.78711 3.62891 10.1527C3.62891 10.5184 3.91016 10.7996 4.27578 10.7996Z" fill="#DEE4EE"/>
<path d="M11.7006 10.7996H13.5006C13.8381 10.7996 14.1475 10.5184 14.1475 10.1527C14.1475 9.78711 13.8662 9.50586 13.5006 9.50586H11.7006C11.3631 9.50586 11.0537 9.78711 11.0537 10.1527C11.0537 10.5184 11.335 10.7996 11.7006 10.7996Z" fill="#DEE4EE"/>
<path d="M16.8754 6.01836H16.0598L14.7379 2.64336C14.541 2.13711 14.0348 1.77148 13.4723 1.77148H4.41602C3.85352 1.77148 3.37539 2.10898 3.15039 2.61523L1.82852 5.99023H1.12539C0.787891 5.99023 0.478516 6.27148 0.478516 6.63711C0.478516 7.00273 0.759766 7.28398 1.12539 7.28398H1.35039V7.31211C1.35039 7.34023 1.35039 7.34023 1.35039 7.36836V11.9527C1.35039 12.684 1.91289 13.3027 2.61602 13.4152V14.5121C2.61602 15.4684 3.40352 16.284 4.38789 16.284H4.95039C5.90664 16.284 6.72227 15.4965 6.72227 14.5121V13.4434H11.0816V14.5121C11.0816 15.4684 11.8691 16.284 12.8535 16.284H13.416C14.3723 16.284 15.1879 15.4965 15.1879 14.5121V13.4434C15.9754 13.4152 16.5941 12.7684 16.5941 11.9809V7.34023C16.5941 7.31211 16.5941 7.28398 16.5941 7.25586H16.8754C17.2129 7.25586 17.5223 6.97461 17.5223 6.60898C17.5223 6.24336 17.2129 6.01836 16.8754 6.01836ZM4.33164 3.09336C4.33164 3.06523 4.35977 3.03711 4.41602 3.03711H13.4723C13.5004 3.03711 13.5285 3.06523 13.5566 3.06523V3.09336L14.991 6.69336H2.89727L4.33164 3.09336ZM5.42852 14.4559C5.42852 14.7371 5.20352 14.9621 4.92227 14.9621H4.35977C4.07852 14.9621 3.85352 14.7371 3.85352 14.4559V13.3871H5.40039V14.4559H5.42852ZM13.8941 14.4559C13.8941 14.7371 13.6691 14.9621 13.3879 14.9621H12.8254C12.5441 14.9621 12.3191 14.7371 12.3191 14.4559V13.3871H13.866V14.4559H13.8941ZM15.3004 11.9246C15.3004 12.0371 15.216 12.1496 15.0754 12.1496H2.81289C2.70039 12.1496 2.58789 12.0652 2.58789 11.9246V7.98711H15.2723V11.9246H15.3004Z" fill="#DEE4EE"/>
</svg>
