<svg viewBox="0 0 18 18" fill="none" xmlns="http://www.w3.org/2000/svg">
<path d="M16.8754 15.5254H15.3566V9.98477C15.3566 9.08477 14.6254 8.38164 13.7535 8.38164H12.1223C11.2223 8.38164 10.5191 9.11289 10.5191 9.98477V15.5254H8.83164V5.73789C8.83164 4.83789 8.10039 4.13477 7.22852 4.13477H5.59727C4.69727 4.13477 3.99414 4.86602 3.99414 5.73789V15.5254H1.77227V1.82852C1.77227 1.49102 1.49102 1.18164 1.12539 1.18164C0.759766 1.18164 0.478516 1.46289 0.478516 1.82852V15.5816C0.478516 16.2285 1.01289 16.791 1.68789 16.791H16.8754C17.2129 16.791 17.5223 16.5098 17.5223 16.1441C17.5223 15.7785 17.2129 15.5254 16.8754 15.5254ZM5.25977 15.5254V5.73789C5.25977 5.54102 5.42852 5.40039 5.59727 5.40039H7.22852C7.42539 5.40039 7.56602 5.56914 7.56602 5.73789V15.5254H5.25977ZM11.7848 15.5254V9.98477C11.7848 9.78789 11.9535 9.64727 12.1223 9.64727H13.7535C13.9504 9.64727 14.091 9.81602 14.091 9.98477V15.5254H11.7848Z" fill="#DEE4EE"/>
</svg>
