<svg viewBox="0 0 18 18" fill="none" xmlns="http://www.w3.org/2000/svg">
<path d="M17.3533 6.27187L15.1596 4.89375C14.9346 4.10625 14.2033 3.54375 13.3596 3.54375H13.0221L9.3377 1.26562C9.14082 1.125 8.85957 1.125 8.66269 1.26562L4.9502 3.57187H4.6127C3.76895 3.57187 3.0377 4.13438 2.8127 4.92188L0.618945 6.3C0.42207 6.4125 0.30957 6.60938 0.30957 6.83437V14.9625C0.30957 16.0031 1.15332 16.8469 2.19395 16.8469H15.7502C16.7908 16.8469 17.6346 16.0031 17.6346 14.9625V6.83437C17.6627 6.60938 17.5502 6.4125 17.3533 6.27187ZM16.3689 7.93125L15.2439 8.35313V6.46875L16.3689 7.17188V7.93125ZM9.0002 2.55938L10.6596 3.6H7.34082L9.0002 2.55938ZM4.64082 4.8375H5.14707H13.3596C13.6689 4.8375 13.9221 5.0625 13.9783 5.37188C13.9783 5.4 13.9783 8.80312 13.9783 8.80312L8.8877 10.6875L4.02207 8.91563V5.37188C4.07832 5.0625 4.33145 4.8375 4.64082 4.8375ZM2.75645 6.46875V8.46563L1.63145 8.04375V7.17188L2.75645 6.46875ZM15.7502 15.5531H2.2502C1.9127 15.5531 1.63145 15.2719 1.63145 14.9344V9.39375L8.69082 11.9531C8.74707 11.9812 8.83145 11.9812 8.91582 11.9812C9.0002 11.9812 9.05645 11.9812 9.14082 11.9531L16.3689 9.28125V14.9344C16.3689 15.2719 16.1158 15.5531 15.7502 15.5531Z" fill="#DEE4EE"/>
<path d="M8.9998 9.56211C10.0967 9.56211 10.9967 8.66211 10.9967 7.56523C10.9967 6.46836 10.0967 5.56836 8.9998 5.56836C7.90293 5.56836 7.00293 6.46836 7.00293 7.56523C7.00293 8.66211 7.90293 9.56211 8.9998 9.56211ZM8.9998 6.80586C9.39355 6.80586 9.73105 7.14336 9.73105 7.53711C9.73105 7.93086 9.39355 8.26836 8.9998 8.26836C8.60605 8.26836 8.26855 7.93086 8.26855 7.53711C8.26855 7.14336 8.60605 6.80586 8.9998 6.80586Z" fill="#DEE4EE"/>
</svg>
