<svg viewBox="0 0 18 18" fill="none" xmlns="http://www.w3.org/2000/svg">
<path d="M9 9.42246C9.16875 9.42246 9.3375 9.36621 9.45 9.22559L10.0969 8.57871H10.575C10.9125 8.57871 11.2219 8.29746 11.2219 7.93184V7.45371L11.8688 6.80684C11.9813 6.69434 12.0656 6.52559 12.0656 6.35684C12.0656 6.18809 12.0094 6.01934 11.8688 5.90684L11.2219 5.25996V4.78184C11.2219 4.44434 10.9406 4.13496 10.575 4.13496H10.0969L9.45 3.48809C9.225 3.26309 8.80313 3.26309 8.55 3.48809L7.90313 4.13496H7.425C7.0875 4.13496 6.77813 4.41621 6.77813 4.78184V5.25996L6.13125 5.90684C5.87812 6.15996 5.87812 6.55371 6.13125 6.80684L6.77813 7.45371V7.93184C6.77813 8.26934 7.05938 8.57871 7.425 8.57871H7.90313L8.55 9.22559C8.6625 9.33809 8.83125 9.42246 9 9.42246ZM8.04375 7.31309V7.20059C8.04375 7.03184 7.9875 6.86309 7.84688 6.75059L7.45313 6.35684L7.84688 5.96309C7.95938 5.85059 8.04375 5.68184 8.04375 5.51309V5.40059H8.15625C8.325 5.40059 8.49375 5.34434 8.60625 5.20371L9 4.80996L9.39375 5.20371C9.50625 5.31621 9.675 5.40059 9.84375 5.40059H9.95625V5.51309C9.95625 5.68184 10.0125 5.85059 10.1531 5.96309L10.5469 6.35684L10.125 6.75059C10.0125 6.86309 9.92813 7.03184 9.92813 7.20059V7.31309H9.84375C9.675 7.31309 9.50625 7.36934 9.39375 7.50996L9 7.87559L8.60625 7.48184C8.49375 7.36934 8.325 7.28496 8.15625 7.28496H8.04375V7.31309Z" fill="#DEE4EE"/>
<path d="M16.0597 15.891L14.6254 13.5848C14.4285 13.2754 14.091 13.0785 13.7254 13.0785H10.9691C12.6566 11.3348 14.9066 8.63477 14.9066 6.35664C14.9066 3.12227 12.2629 0.478516 9.02848 0.478516C5.79411 0.478516 3.15036 3.12227 3.15036 6.35664C3.15036 8.60664 5.37224 11.3348 7.08786 13.0785H4.30349C3.93786 13.0785 3.60036 13.2754 3.40349 13.5848L1.96911 15.891C1.77224 16.2285 1.74411 16.6223 1.94099 16.9598C2.13786 17.2973 2.47536 17.4941 2.86911 17.4941H15.1879C15.5816 17.4941 15.9191 17.2973 16.116 16.9598C16.2847 16.6223 16.2566 16.2285 16.0597 15.891ZM9.00036 1.77227C11.5597 1.77227 13.6129 3.85352 13.6129 6.38477C13.6129 8.32539 11.2222 11.1941 9.00036 13.2473C6.77848 11.1941 4.38786 8.29727 4.38786 6.38477C4.38786 3.82539 6.44098 1.77227 9.00036 1.77227ZM3.20661 16.2566L4.38786 14.3723H8.35349C8.43786 14.4566 8.49411 14.5129 8.57849 14.5691C8.69099 14.6816 8.85974 14.7379 9.00036 14.7379C9.14099 14.7379 9.30974 14.6816 9.42224 14.5691C9.47849 14.5129 9.56286 14.4566 9.64723 14.3723H13.6129L14.7941 16.2566H3.20661Z" fill="#DEE4EE"/>
</svg>
