<svg viewBox="0 0 18 18" fill="none" xmlns="http://www.w3.org/2000/svg">
<path d="M8.55 9.73047H10.4906C10.8281 9.73047 11.1094 9.44922 11.1094 9.11172C11.1094 8.77422 10.8281 8.49297 10.4906 8.49297H9.92813V8.23984C9.92813 7.90234 9.64687 7.62109 9.30937 7.62109C8.97187 7.62109 8.69063 7.90234 8.69063 8.23984V8.49297H8.57813C7.65 8.49297 6.89062 9.25234 6.89062 10.1805C6.89062 11.1086 7.65 11.868 8.57813 11.868H9.47813C9.70313 11.868 9.9 12.0648 9.9 12.2898C9.9 12.5148 9.70313 12.7117 9.47813 12.7117H7.5375C7.2 12.7117 6.91875 12.993 6.91875 13.3305C6.91875 13.668 7.2 13.9492 7.5375 13.9492H8.71875V14.2023C8.71875 14.5398 9 14.8211 9.3375 14.8211C9.675 14.8211 9.95625 14.5398 9.95625 14.2023V13.8648C10.6594 13.668 11.1656 13.0211 11.1656 12.2617C11.1656 11.3336 10.4063 10.5742 9.47813 10.5742H8.57813C8.35313 10.5742 8.15625 10.3773 8.15625 10.1523C8.15625 9.92734 8.325 9.73047 8.55 9.73047Z" fill="#DEE4EE"/>
<path d="M15.5531 9.87148C15.1031 8.85898 14.5125 7.87461 13.7531 6.97461C13.0781 6.15898 12.4031 5.54023 11.8969 5.14648L13.3031 2.53086C13.5281 2.13711 13.4437 1.63086 13.1062 1.32148C12.5437 0.787109 11.925 0.505859 11.25 0.505859C10.6594 0.505859 10.125 0.730859 9.73125 0.899609H9.70312C9.53437 0.955859 9.28125 1.06836 9.19687 1.06836C8.35312 0.758984 7.70625 0.562109 7.03125 0.562109C6.13125 0.562109 5.34375 0.927734 4.6125 1.68711C4.275 2.02461 4.21875 2.55898 4.5 2.98086L5.99062 5.20273C5.5125 5.59648 4.86562 6.18711 4.19062 6.97461C3.43125 7.87461 2.84062 8.85898 2.39062 9.87148C1.82812 11.1371 1.54688 12.4871 1.54688 13.8371C1.54688 15.8621 3.20625 17.5215 5.23125 17.5215H12.6562C14.6812 17.5215 16.3406 15.8621 16.3406 13.8371C16.3969 12.4871 16.1156 11.1371 15.5531 9.87148ZM5.70937 2.44648C6.58125 1.63086 7.39687 1.74336 8.83125 2.27773C8.97187 2.33398 9.1125 2.36211 9.25312 2.36211C9.59062 2.36211 9.92812 2.22148 10.2656 2.08086L10.2937 2.05273C10.6031 1.91211 10.9687 1.77148 11.3062 1.77148C11.5875 1.77148 11.8687 1.88398 12.1219 2.10898L10.7156 4.72461H7.2L5.70937 2.44648ZM12.7125 16.2559H5.2875C3.96562 16.2559 2.86875 15.159 2.86875 13.8371C2.86875 12.6559 3.12187 11.5027 3.6 10.3777C3.99375 9.47773 4.52812 8.60586 5.20312 7.79023C5.93437 6.91836 6.6375 6.29961 7.0875 5.96211H10.9125C11.3625 6.29961 12.0656 6.91836 12.7969 7.79023C13.4719 8.60586 14.0062 9.44961 14.4 10.3777C14.8781 11.5027 15.1312 12.6559 15.1312 13.8371C15.1312 15.159 14.0625 16.2559 12.7125 16.2559Z" fill="#DEE4EE"/>
</svg>
