<svg viewBox="0 0 18 18" fill="none" xmlns="http://www.w3.org/2000/svg">
<path d="M9 7.87461C6.89062 7.87461 5.20312 6.21523 5.20312 4.19023C5.20312 2.16523 6.89062 0.505859 9 0.505859C11.1094 0.505859 12.7969 2.16523 12.7969 4.19023C12.7969 6.21523 11.1094 7.87461 9 7.87461ZM9 1.77148C7.59375 1.77148 6.46875 2.86836 6.46875 4.19023C6.46875 5.51211 7.59375 6.60898 9 6.60898C10.4062 6.60898 11.5312 5.51211 11.5312 4.19023C11.5312 2.86836 10.4062 1.77148 9 1.77148Z" fill="#DEE4EE"/>
<path d="M14.541 17.5217H3.45977C2.89727 17.5217 2.44727 17.0717 2.44727 16.5092V13.9779C2.44727 11.2217 4.69727 8.97168 7.45352 8.97168H10.5754C13.3316 8.97168 15.5816 11.2217 15.5816 13.9779V16.5092C15.5535 17.0436 15.1035 17.5217 14.541 17.5217ZM3.71289 16.2561H14.316V13.9779C14.316 11.9248 12.6285 10.2373 10.5754 10.2373H7.42539C5.37227 10.2373 3.68477 11.9248 3.68477 13.9779V16.2561H3.71289Z" fill="#DEE4EE"/>
</svg>
