<svg width="18" height="18" viewBox="0 0 18 18" fill="none" xmlns="http://www.w3.org/2000/svg">
<path d="M15.4402 4.66836L11.559 0.843359C11.334 0.618359 11.0246 0.505859 10.7152 0.505859H3.96523C3.00898 0.505859 2.19336 1.29336 2.19336 2.27773V15.7777C2.19336 16.734 2.98086 17.5496 3.96523 17.5496H14.0059C14.9621 17.5496 15.7777 16.7621 15.7777 15.7777V5.51211C15.7777 5.20273 15.6652 4.89336 15.4402 4.66836ZM11.5871 2.64336L13.6965 4.72461H11.5871V2.64336ZM14.034 16.2559H3.96523C3.68398 16.2559 3.45898 16.0309 3.45898 15.7496V2.24961C3.45898 1.96836 3.68398 1.74336 3.96523 1.74336H10.3215V5.34336C10.3215 5.68086 10.6027 5.99023 10.9684 5.99023H14.5402V15.7496C14.5121 16.0309 14.2871 16.2559 14.034 16.2559Z" fill="#DEE4EE"/>
<path d="M10.9402 8.18359H6.07461C5.73711 8.18359 5.42773 8.46484 5.42773 8.83047C5.42773 9.19609 5.70898 9.47734 6.07461 9.47734H10.9402C11.2777 9.47734 11.5871 9.19609 11.5871 8.83047C11.5871 8.46484 11.3059 8.18359 10.9402 8.18359Z" fill="#DEE4EE"/>
<path d="M10.9402 11.2773H6.07461C5.73711 11.2773 5.42773 11.5586 5.42773 11.9242C5.42773 12.2898 5.70898 12.5711 6.07461 12.5711H10.9402C11.2777 12.5711 11.5871 12.2898 11.5871 11.9242C11.5871 11.5586 11.3059 11.2773 10.9402 11.2773Z" fill="#DEE4EE"/>
</svg>
