<svg viewBox="0 0 18 18" fill="none" xmlns="http://www.w3.org/2000/svg">
<path d="M6.10273 0.956055H2.53086C1.57461 0.956055 0.787109 1.74355 0.787109 2.6998V6.27168C0.787109 7.22793 1.57461 8.01543 2.53086 8.01543H6.10273C7.05898 8.01543 7.84648 7.22793 7.84648 6.27168V2.72793C7.87461 1.74355 7.08711 0.956055 6.10273 0.956055ZM6.60898 6.2998C6.60898 6.58105 6.38398 6.80606 6.10273 6.80606H2.53086C2.24961 6.80606 2.02461 6.58105 2.02461 6.2998V2.72793C2.02461 2.44668 2.24961 2.22168 2.53086 2.22168H6.10273C6.38398 2.22168 6.60898 2.44668 6.60898 2.72793V6.2998Z" fill="#DEE4EE"/>
<path d="M15.468 0.956055H11.8961C10.9398 0.956055 10.1523 1.74355 10.1523 2.6998V6.27168C10.1523 7.22793 10.9398 8.01543 11.8961 8.01543H15.468C16.4242 8.01543 17.2117 7.22793 17.2117 6.27168V2.72793C17.2117 1.74355 16.4242 0.956055 15.468 0.956055ZM15.9742 6.2998C15.9742 6.58105 15.7492 6.80606 15.468 6.80606H11.8961C11.6148 6.80606 11.3898 6.58105 11.3898 6.2998V2.72793C11.3898 2.44668 11.6148 2.22168 11.8961 2.22168H15.468C15.7492 2.22168 15.9742 2.44668 15.9742 2.72793V6.2998Z" fill="#DEE4EE"/>
<path d="M6.10273 9.92773H2.53086C1.57461 9.92773 0.787109 10.7152 0.787109 11.6715V15.2434C0.787109 16.1996 1.57461 16.9871 2.53086 16.9871H6.10273C7.05898 16.9871 7.84648 16.1996 7.84648 15.2434V11.6996C7.87461 10.7152 7.08711 9.92773 6.10273 9.92773ZM6.60898 15.2715C6.60898 15.5527 6.38398 15.7777 6.10273 15.7777H2.53086C2.24961 15.7777 2.02461 15.5527 2.02461 15.2715V11.6996C2.02461 11.4184 2.24961 11.1934 2.53086 11.1934H6.10273C6.38398 11.1934 6.60898 11.4184 6.60898 11.6996V15.2715Z" fill="#DEE4EE"/>
<path d="M15.468 9.92773H11.8961C10.9398 9.92773 10.1523 10.7152 10.1523 11.6715V15.2434C10.1523 16.1996 10.9398 16.9871 11.8961 16.9871H15.468C16.4242 16.9871 17.2117 16.1996 17.2117 15.2434V11.6996C17.2117 10.7152 16.4242 9.92773 15.468 9.92773ZM15.9742 15.2715C15.9742 15.5527 15.7492 15.7777 15.468 15.7777H11.8961C11.6148 15.7777 11.3898 15.5527 11.3898 15.2715V11.6996C11.3898 11.4184 11.6148 11.1934 11.8961 11.1934H15.468C15.7492 11.1934 15.9742 11.4184 15.9742 11.6996V15.2715Z" fill="#DEE4EE"/>
</svg>
