<svg viewBox="0 0 18 18" fill="none" xmlns="http://www.w3.org/2000/svg">
<path d="M15.9228 3.06582H14.5936V1.94082C14.5936 1.60332 14.3166 1.29395 13.9566 1.29395C13.5966 1.29395 13.3197 1.5752 13.3197 1.94082V3.09395H4.62434V1.94082C4.62434 1.60332 4.34742 1.29395 3.98742 1.29395C3.62742 1.29395 3.35049 1.5752 3.35049 1.94082V3.09395H2.07665C1.13511 3.09395 0.332031 3.88145 0.332031 4.8377V14.8783C0.332031 15.8346 1.10742 16.6221 2.07665 16.6221H15.9228C16.8643 16.6221 17.6674 15.8346 17.6674 14.8783V4.8377C17.6674 3.85332 16.8643 3.06582 15.9228 3.06582ZM16.4213 14.8783C16.4213 15.1596 16.1997 15.3564 15.9228 15.3564H2.07665C1.79972 15.3564 1.57819 15.1314 1.57819 14.8783V7.95957H16.3936V14.8783H16.4213ZM16.4213 6.69395H1.60588V4.8377C1.60588 4.55645 1.82742 4.35957 2.10434 4.35957H3.40588V4.66895C3.40588 5.00645 3.6828 5.31582 4.0428 5.31582C4.4028 5.31582 4.67972 5.03457 4.67972 4.66895V4.35957H13.4028V4.66895C13.4028 5.00645 13.6797 5.31582 14.0397 5.31582C14.3997 5.31582 14.6766 5.03457 14.6766 4.66895V4.35957H16.0059C16.2828 4.35957 16.5043 4.58457 16.5043 4.8377V6.69395H16.4213Z" fill="#DEE4EE"/>
<path d="M6.31352 11.616L7.03352 12.2348L6.81198 13.1629C6.7289 13.5285 6.86736 13.8941 7.14429 14.1191C7.4489 14.3441 7.83659 14.3441 8.14121 14.1754L8.97198 13.6691L9.80275 14.1754C9.94121 14.2598 10.1074 14.316 10.2735 14.316C10.4674 14.316 10.6335 14.2598 10.7997 14.1473C11.1043 13.9223 11.2427 13.5566 11.132 13.191L10.9104 12.2629L11.6304 11.6441C11.9074 11.391 12.0181 11.0254 11.9074 10.6598C11.7966 10.2941 11.492 10.0691 11.132 10.041L10.1627 9.95664L9.80275 9.05664C9.66429 8.71914 9.33198 8.49414 8.97198 8.49414C8.61198 8.49414 8.27967 8.71914 8.14121 9.05664L7.78121 9.95664L6.81198 10.041C6.45198 10.0691 6.14736 10.3223 6.03659 10.6598C5.95352 10.9973 6.03659 11.391 6.31352 11.616ZM8.11352 11.1941C8.44582 11.166 8.75044 10.941 8.86121 10.6316L8.99967 10.3223L9.13813 10.6316C9.27659 10.941 9.55352 11.166 9.88582 11.1941L10.2181 11.2223L9.9689 11.4191C9.71967 11.6441 9.6089 11.9816 9.66429 12.3191L9.74736 12.6566L9.44275 12.4879C9.30429 12.4035 9.13813 12.3473 8.97198 12.3473C8.80583 12.3473 8.63967 12.4035 8.50121 12.4879L8.22429 12.6566L8.30736 12.3191C8.39044 11.9816 8.27967 11.6441 8.00275 11.4191L7.75352 11.1941H8.11352Z" fill="#DEE4EE"/>
</svg>
