<svg viewBox="0 0 18 18" fill="none" xmlns="http://www.w3.org/2000/svg">
<g clip-path="url(#clip0_1208_5678)">
<path d="M14.9066 3.00889C13.1348 1.20889 10.6598 0.33702 8.15663 0.61827C4.24726 1.01202 1.15351 4.13389 0.731631 8.01514C0.562881 9.81514 0.928506 11.5589 1.82851 13.0776L0.703506 16.0026C0.534756 16.3964 0.647256 16.8745 0.984756 17.1558C1.18163 17.3245 1.43476 17.437 1.68788 17.437C1.85663 17.437 1.99726 17.4089 2.16601 17.3245L4.72538 16.0308C6.27225 16.9589 8.016 17.3526 9.84413 17.1839C13.7816 16.8183 16.9316 13.6964 17.3254 9.73077C17.5785 7.22764 16.7066 4.78077 14.9066 3.00889ZM16.0598 9.61827C15.7223 12.9651 13.0504 15.6089 9.7035 15.9183C8.04413 16.087 6.46913 15.6651 5.09101 14.7651C4.97851 14.6808 4.866 14.6526 4.75351 14.6526C4.66913 14.6526 4.55663 14.6808 4.47225 14.7089L2.08163 15.8901L3.12226 13.1901C3.20663 12.9933 3.17851 12.7964 3.06601 12.6276C2.19413 11.2776 1.82851 9.70264 1.99726 8.07139C2.33476 4.83702 4.97851 2.22139 8.26913 1.88389C10.4066 1.65889 12.516 2.39014 14.0066 3.90889C15.5254 5.39952 16.2848 7.48077 16.0598 9.61827Z" fill="#DEE4EE"/>
<path d="M5.31582 8.38086C4.9502 8.38086 4.66895 8.66211 4.66895 9.02773C4.66895 9.36523 4.9502 9.67461 5.31582 9.67461C5.68145 9.67461 5.9627 9.39336 5.9627 9.02773C5.93457 8.66211 5.65332 8.38086 5.31582 8.38086Z" fill="#DEE4EE"/>
<path d="M9.00039 8.38086C8.63477 8.38086 8.35352 8.66211 8.35352 9.02773C8.35352 9.36523 8.63477 9.67461 9.00039 9.67461C9.33789 9.67461 9.64727 9.39336 9.64727 9.02773C9.64727 8.66211 9.33789 8.38086 9.00039 8.38086Z" fill="#DEE4EE"/>
<path d="M12.685 8.38086C12.3193 8.38086 12.0381 8.66211 12.0381 9.02773C12.0381 9.36523 12.3193 9.67461 12.685 9.67461C13.0506 9.67461 13.3318 9.39336 13.3318 9.02773C13.3318 8.66211 13.0506 8.38086 12.685 8.38086Z" fill="#DEE4EE"/>
</g>
<defs>
<clipPath id="clip0_1208_5678">
<rect width="18" height="18" fill="white"/>
</clipPath>
</defs>
</svg>
