<svg viewBox="0 0 18 18" fill="none" xmlns="http://www.w3.org/2000/svg">
<g clip-path="url(#clip0_1208_5661)">
<path d="M15.7504 3.7123H12.6004V2.16543C12.6004 1.3498 11.9254 0.674805 11.1098 0.674805H6.86289C6.04727 0.674805 5.37227 1.3498 5.37227 2.16543V3.7123H2.25039C1.29414 3.7123 0.478516 4.4998 0.478516 5.48418V15.5529C0.478516 16.5092 1.26602 17.3248 2.25039 17.3248H15.7504C16.7066 17.3248 17.5223 16.5373 17.5223 15.5529V5.48418C17.4941 4.4998 16.7066 3.7123 15.7504 3.7123ZM6.66602 2.16543C6.66602 2.05293 6.75039 1.96855 6.86289 1.96855H11.1098C11.2223 1.96855 11.3348 2.05293 11.3348 2.19355V3.74043H6.66602V2.16543ZM2.25039 4.97793H15.7504C16.0316 4.97793 16.2566 5.20293 16.2566 5.48418V7.67793L9.64727 9.47793V8.88731C9.64727 8.5498 9.36602 8.24043 9.00039 8.24043C8.63477 8.24043 8.35352 8.52168 8.35352 8.88731V9.47793L1.77227 7.64981V5.45605C1.77227 5.20293 1.96914 4.97793 2.25039 4.97793ZM15.7504 16.0311H2.25039C1.96914 16.0311 1.74414 15.8061 1.74414 15.5248V8.97168L8.35352 10.7717V11.3904C8.35352 11.7279 8.63477 12.0373 9.00039 12.0373C9.36602 12.0373 9.64727 11.7561 9.64727 11.3904V10.7717L16.2566 8.97168V15.5529C16.2285 15.8061 16.0316 16.0311 15.7504 16.0311Z" fill="#DEE4EE"/>
</g>
<defs>
<clipPath id="clip0_1208_5661">
<rect width="18" height="18" fill="white"/>
</clipPath>
</defs>
</svg>
