<svg viewBox="0 0 18 18" fill="none" xmlns="http://www.w3.org/2000/svg">
<g clip-path="url(#clip0_1208_5734)">
<path d="M16.9029 13.9219L14.0061 11.0251C13.6123 10.6313 13.0779 10.4063 12.5154 10.4063C12.1779 10.4063 11.8404 10.4907 11.5592 10.6313L10.0967 9.16882C11.7561 7.05945 11.6154 3.99382 9.67481 2.02507C7.59356 -0.0280538 4.16231 -0.0280536 2.08105 2.08132C-0.0283204 4.1907 -0.0283204 7.59382 2.08105 9.7032C3.12168 10.7157 4.4998 11.2501 5.87793 11.2501C7.05918 11.2501 8.24043 10.8563 9.19668 10.0969L10.6592 11.5594C10.5186 11.8407 10.4342 12.1782 10.4342 12.5157C10.4342 13.0782 10.6592 13.6126 11.0529 14.0063L13.9498 16.9032C14.3717 17.3251 14.9061 17.5219 15.4404 17.5219C15.9748 17.5219 16.5092 17.3251 16.9311 16.9032C17.7186 16.0876 17.7186 14.7376 16.9029 13.9219ZM2.95293 8.77507C1.3498 7.17195 1.3498 4.55632 2.95293 2.9532C3.76856 2.13757 4.80918 1.74382 5.84981 1.74382C6.89043 1.74382 7.95918 2.13757 8.77481 2.9532C10.3779 4.55632 10.3779 7.17195 8.77481 8.77507C7.17168 10.3782 4.55606 10.3782 2.95293 8.77507ZM16.0029 16.0032C15.6936 16.3126 15.1592 16.3407 14.8217 16.0032L11.9248 13.1063C11.7561 12.9376 11.6717 12.7407 11.6717 12.5157C11.6717 12.2907 11.7561 12.0938 11.9248 11.9251C12.0936 11.7563 12.2904 11.6719 12.5154 11.6719C12.7404 11.6719 12.9373 11.7563 13.1061 11.9251L16.0029 14.8219C16.3123 15.1594 16.3123 15.6657 16.0029 16.0032Z" fill="#DEE4EE"/>
</g>
<defs>
<clipPath id="clip0_1208_5734">
<rect width="18" height="18" fill="white"/>
</clipPath>
</defs>
</svg>
