<svg width="18" height="18" viewBox="0 0 18 18" fill="none" xmlns="http://www.w3.org/2000/svg">
<path d="M16.7621 7.4248C17.184 7.39668 17.5215 7.05918 17.5215 6.60918V5.0623C17.5215 4.10605 16.7621 3.34668 15.8059 3.34668H2.22148C1.26523 3.34668 0.505859 4.10605 0.505859 5.0623V6.6373C0.505859 7.05918 0.843359 7.4248 1.26523 7.45293C2.05273 7.5373 2.64336 8.2123 2.64336 9.02793C2.64336 9.84355 2.05273 10.5186 1.26523 10.5748C0.843359 10.6029 0.505859 10.9686 0.505859 11.3904V12.9373C0.505859 13.8936 1.26523 14.6529 2.22148 14.6529H15.8059C16.7621 14.6529 17.5215 13.8936 17.5215 12.9373V11.3904C17.5215 10.9686 17.184 10.6029 16.7621 10.5748C15.9746 10.4904 15.384 9.81543 15.384 8.9998C15.384 8.15605 15.9746 7.48105 16.7621 7.4248ZM16.2559 11.7561V12.9373C16.2559 13.1904 16.059 13.3873 15.8059 13.3873H8.91523V11.8686C8.91523 11.5311 8.63398 11.2217 8.26836 11.2217C7.90273 11.2217 7.62148 11.5029 7.62148 11.8686V13.3873H2.22148C1.96836 13.3873 1.77148 13.1904 1.77148 12.9373V11.8123C3.00898 11.5311 3.90898 10.4061 3.90898 9.05606C3.90898 7.73418 3.00898 6.58105 1.77148 6.27168V5.0623C1.77148 4.80918 1.96836 4.6123 2.22148 4.6123H7.64961V6.13105C7.64961 6.46855 7.93086 6.77793 8.29648 6.77793C8.66211 6.77793 8.94336 6.49668 8.94336 6.13105V4.6123H15.8059C16.059 4.6123 16.2559 4.80918 16.2559 5.0623V6.21543C15.0184 6.5248 14.1184 7.6498 14.1184 8.9998C14.1184 10.3217 15.0184 11.4467 16.2559 11.7561Z" fill="#DEE4EE"/>
<path d="M8.29727 7.64941C7.95977 7.64941 7.65039 7.93066 7.65039 8.29629V9.73066C7.65039 10.0682 7.93164 10.3775 8.29727 10.3775C8.66289 10.3775 8.94414 10.0963 8.94414 9.73066V8.29629C8.91602 7.93066 8.63477 7.64941 8.29727 7.64941Z" fill="#DEE4EE"/>
</svg>
