<svg viewBox="0 0 18 18" fill="none" xmlns="http://www.w3.org/2000/svg">
<g clip-path="url(#clip0_1208_5716)">
<path d="M17.0721 7.25586C16.7909 6.94648 16.3971 6.77773 15.9752 6.77773H15.8909C15.7502 6.77773 15.6377 6.69336 15.6096 6.58086C15.5815 6.46836 15.5252 6.38398 15.4971 6.27148C15.4409 6.15898 15.4971 6.04648 15.5815 5.96211L15.6377 5.90586C15.9471 5.62461 16.1159 5.23086 16.1159 4.80898C16.1159 4.38711 15.9752 3.99336 15.6659 3.68398L14.569 2.55898C13.9784 1.94023 12.9659 1.91211 12.3471 2.53086L12.2627 2.58711C12.1784 2.67148 12.0377 2.69961 11.8971 2.64336C11.7846 2.58711 11.6721 2.53086 11.5315 2.50273C11.3909 2.44648 11.3065 2.33398 11.3065 2.22148V2.08086C11.3065 1.20898 10.6034 0.505859 9.73148 0.505859H8.15648C7.7346 0.505859 7.34085 0.674609 7.0596 0.955859C6.75023 1.26523 6.6096 1.65898 6.6096 2.05273V2.16523C6.6096 2.27773 6.52523 2.39023 6.41273 2.44648C6.35648 2.47461 6.32835 2.47461 6.2721 2.50273C6.1596 2.55898 6.01898 2.53086 5.9346 2.44648L5.87835 2.36211C5.5971 2.05273 5.20335 1.88398 4.78148 1.88398C4.3596 1.88398 3.96585 2.02461 3.65648 2.33398L2.53148 3.43086C1.91273 4.02148 1.8846 5.03398 2.50335 5.65273L2.5596 5.73711C2.64398 5.82148 2.6721 5.96211 2.61585 6.04648C2.5596 6.15898 2.53148 6.24336 2.47523 6.35586C2.41898 6.46836 2.3346 6.52461 2.19398 6.52461H2.1096C1.68773 6.52461 1.29398 6.66523 0.984604 6.97461C0.675229 7.25586 0.506479 7.64961 0.506479 8.07148L0.478354 9.64648C0.450229 10.5184 1.15335 11.2215 2.02523 11.2496H2.1096C2.25023 11.2496 2.36273 11.334 2.39085 11.4465C2.4471 11.5309 2.50335 11.6152 2.53148 11.7277C2.5596 11.8402 2.53148 11.9527 2.4471 12.0371L2.39085 12.0934C2.08148 12.3746 1.91273 12.7684 1.91273 13.1902C1.91273 13.6121 2.05335 14.0059 2.36273 14.3152L3.4596 15.4402C4.05023 16.059 5.06273 16.0871 5.68148 15.4684L5.76585 15.4121C5.85023 15.3277 5.99085 15.2996 6.13148 15.3559C6.24398 15.4121 6.35648 15.4684 6.4971 15.4965C6.63773 15.5527 6.7221 15.6652 6.7221 15.7777V15.8902C6.7221 16.7621 7.42523 17.4652 8.2971 17.4652H9.8721C10.744 17.4652 11.4471 16.7621 11.4471 15.8902V15.7777C11.4471 15.6652 11.5315 15.5527 11.644 15.4965C11.7002 15.4684 11.7284 15.4684 11.7846 15.4402C11.9252 15.384 12.0377 15.4121 12.1221 15.4965L12.1784 15.5809C12.4596 15.8902 12.8534 16.059 13.2752 16.059C13.6971 16.059 14.0909 15.9184 14.4002 15.609L15.5252 14.5121C16.144 13.9215 16.1721 12.909 15.5534 12.2902L15.4971 12.2059C15.4127 12.1215 15.3846 11.9809 15.4409 11.8965C15.4971 11.784 15.5252 11.6996 15.5815 11.5871C15.6377 11.4746 15.7502 11.4184 15.8627 11.4184H15.9471H15.9752C16.819 11.4184 17.5221 10.7434 17.5502 9.87148L17.5784 8.29648C17.5221 7.95898 17.3534 7.53711 17.0721 7.25586ZM16.2284 9.89961C16.2284 10.0684 16.0877 10.209 15.919 10.209H15.8346H15.8065C15.1596 10.209 14.569 10.6027 14.344 11.1652C14.3159 11.2496 14.2596 11.334 14.2315 11.4184C13.9784 11.9809 14.0909 12.684 14.5409 13.134L14.5971 13.2184C14.7096 13.3309 14.7096 13.5277 14.5971 13.6402L13.4721 14.7371C13.3877 14.8215 13.3034 14.8215 13.2471 14.8215C13.1909 14.8215 13.1065 14.8215 13.0221 14.7371L12.9659 14.6527C12.5159 14.1746 11.8409 14.034 11.2221 14.3152L11.1096 14.3715C10.4909 14.6246 10.0971 15.1871 10.0971 15.834V15.9465C10.0971 16.1152 9.95648 16.2559 9.78773 16.2559H8.21273C8.04398 16.2559 7.90335 16.1152 7.90335 15.9465V15.834C7.90335 15.1871 7.5096 14.5965 6.89085 14.3715C6.80648 14.3434 6.69398 14.2871 6.6096 14.259C6.3846 14.1465 6.1596 14.1184 5.9346 14.1184C5.54085 14.1184 5.1471 14.259 4.83773 14.5684L4.78148 14.5965C4.66898 14.709 4.4721 14.709 4.3596 14.5965L3.26273 13.4715C3.17835 13.3871 3.17835 13.3027 3.17835 13.2465C3.17835 13.1902 3.17835 13.1059 3.26273 13.0215L3.31898 12.9652C3.7971 12.5152 3.93773 11.8121 3.6846 11.2496C3.65648 11.1652 3.62835 11.0809 3.5721 10.9965C3.3471 10.4059 2.7846 9.98398 2.13773 9.98398H2.05335C1.8846 9.98398 1.74398 9.84336 1.74398 9.67461L1.7721 8.09961C1.7721 7.98711 1.82835 7.93086 1.85648 7.87461C1.8846 7.84648 1.96898 7.79023 2.08148 7.79023H2.16585C2.81273 7.81836 3.40335 7.42461 3.65648 6.83398C3.6846 6.74961 3.74085 6.66523 3.76898 6.58086C4.0221 6.01836 3.9096 5.31523 3.4596 4.86523L3.40335 4.78086C3.29085 4.66836 3.29085 4.47148 3.40335 4.35898L4.52835 3.26211C4.61273 3.17773 4.6971 3.17773 4.75335 3.17773C4.8096 3.17773 4.89398 3.17773 4.97835 3.26211L5.0346 3.34648C5.4846 3.82461 6.1596 3.96523 6.77835 3.71211L6.89085 3.65586C7.5096 3.40273 7.90335 2.84023 7.90335 2.19336V2.08086C7.90335 1.96836 7.9596 1.91211 7.98773 1.85586C8.01585 1.79961 8.10023 1.77148 8.21273 1.77148H9.78773C9.95648 1.77148 10.0971 1.91211 10.0971 2.08086V2.19336C10.0971 2.84023 10.4909 3.43086 11.1096 3.65586C11.194 3.68398 11.3065 3.74023 11.3909 3.76836C11.9815 4.04961 12.6846 3.93711 13.1627 3.48711L13.2471 3.43086C13.3596 3.31836 13.5565 3.31836 13.669 3.43086L14.7659 4.55586C14.8502 4.64023 14.8502 4.72461 14.8502 4.78086C14.8502 4.83711 14.8221 4.92148 14.7659 5.00586L14.7096 5.06211C14.2034 5.48398 14.0627 6.18711 14.2877 6.74961C14.3159 6.83398 14.344 6.91836 14.4002 7.00273C14.6252 7.59336 15.1877 8.01523 15.8346 8.01523H15.919C16.0315 8.01523 16.0877 8.07148 16.144 8.09961C16.2002 8.12773 16.2284 8.21211 16.2284 8.32461V9.89961Z" fill="#DEE4EE"/>
<path d="M8.99981 5.1748C6.89043 5.1748 5.1748 6.89043 5.1748 8.9998C5.1748 11.1092 6.89043 12.8248 8.99981 12.8248C11.1092 12.8248 12.8248 11.1092 12.8248 8.9998C12.8248 6.89043 11.1092 5.1748 8.99981 5.1748ZM8.99981 11.5592C7.59355 11.5592 6.44043 10.4061 6.44043 8.9998C6.44043 7.59355 7.59355 6.44043 8.99981 6.44043C10.4061 6.44043 11.5592 7.59355 11.5592 8.9998C11.5592 10.4061 10.4061 11.5592 8.99981 11.5592Z" fill="#DEE4EE"/>
</g>
<defs>
<clipPath id="clip0_1208_5716">
<rect width="18" height="18" fill="white"/>
</clipPath>
</defs>
</svg>
