<svg width="226" height="161" viewBox="0 0 226 161" fill="none" xmlns="http://www.w3.org/2000/svg">
<path d="M19.3521 124.195V127.781H16.5045V141.738C17.8052 141.633 19.0709 141.51 20.3013 141.352L20.5474 144.586C13.9908 145.729 6.67828 145.852 1.17633 145.887L0.684143 142.23C1.82672 142.23 3.05719 142.23 4.34039 142.213V127.781H1.49274V124.195H19.3521ZM8.66461 142.143C9.82477 142.107 11.0025 142.055 12.1802 142.002V127.781H8.66461V142.143ZM21.8482 153.234V121.242H26.3482V133.406H31.0591V137.062H26.3482V153.234H21.8482ZM48.7962 123.141C48.7786 132 44.5071 137.871 33.7141 140.965L32.097 137.414C36.6673 136.184 39.6731 134.461 41.5364 132.369L32.6595 133.02L32.0266 129.539L43.4348 129.152C43.7161 128.361 43.9095 127.535 43.9973 126.691H33.6438V123.141H48.7962ZM36.3509 146.941C36.3509 142.934 40.5872 140.613 47.4251 140.613C54.1223 140.613 58.3938 142.934 58.3938 146.941C58.3938 150.932 54.1223 153.199 47.4251 153.199C40.5872 153.199 36.3509 150.932 36.3509 146.941ZM40.886 146.941C40.886 148.77 43.1009 149.789 47.4251 149.789C51.6263 149.789 53.929 148.77 53.929 146.941C53.929 145.061 51.6263 144.129 47.4251 144.129C43.1009 144.129 40.886 145.061 40.886 146.941ZM53.7884 140.121V121.277H58.2884V140.121H53.7884ZM91.1777 145.781V149.508H61.8926V145.781H91.1777ZM64.1777 127.641V124.055H88.7168V127.641H84.2168V137.344H88.5762V140.859H64.3184V137.344H68.6074V127.641H64.1777ZM73.1074 137.344H79.7871V127.641H73.1074V137.344ZM104.872 123.633V133.793H97.946V137.273C101.374 137.238 103.94 137.08 106.946 136.535L107.368 140.051C103.712 140.771 100.548 140.824 95.8015 140.824H93.5866V130.559H100.548V127.113H93.5515V123.633H104.872ZM98.0866 152.672V142.898H102.587V149.086H120.587V152.672H98.0866ZM106.067 132.914V129.258H109.02V121.805H113.239V144.551H109.02V132.914H106.067ZM115.524 145.324V121.277H119.778V145.324H115.524ZM151.964 145.711V149.367H122.679V145.711H151.964ZM123.874 137.484C130.871 136.412 134.896 132.035 134.914 127.57V127.535H125.105V123.949H149.398V127.535H139.624V127.57C139.607 132.035 143.65 136.254 150.874 137.344L149.117 140.895C143.509 139.91 139.361 137.15 137.287 133.389C135.265 137.238 131.169 140.086 125.632 141.07L123.874 137.484Z" fill="#1C2023"/>
<path d="M168.837 139.043V139.834C168.822 140.735 168.822 142.053 168.515 143.73L166.903 143.584C167.167 142.222 167.218 141.204 167.233 140.391H162.084V139.043H168.837ZM161.293 144.785C162.077 144.778 162.956 144.771 163.886 144.756V142.061H165.497V144.705C166.867 144.646 168.273 144.543 169.555 144.36L169.643 145.532C166.889 146.03 163.761 146.082 161.439 146.089L161.293 144.785ZM163.271 151.04V147.1H164.911V149.722H172.426V151.04H163.271ZM170.331 147.979V138.062H172.001V142.192H173.715V143.555H172.001V147.979H170.331ZM185.434 138.062V151.318H183.822V138.062H185.434ZM175.121 140.537V139.219H181.361V144.185H176.806V146.851C178.893 146.836 180.688 146.726 182.753 146.382L182.899 147.715C180.651 148.103 178.673 148.191 176.293 148.184H175.136V142.896H179.706V140.537H175.121ZM192.377 141.24C192.362 143.672 193.644 146.104 195.79 147.026L194.823 148.33C193.3 147.627 192.187 146.228 191.571 144.5C190.963 146.36 189.821 147.883 188.217 148.638L187.221 147.275C189.425 146.323 190.714 143.796 190.722 141.24V139.131H192.377V141.24ZM196.742 151.318V138.062H198.383V151.318H196.742ZM207.172 139.878C207.172 141.921 209.171 143.979 211.947 144.463L211.215 145.825C208.996 145.364 207.179 144.016 206.315 142.236C205.443 144.001 203.627 145.356 201.415 145.825L200.697 144.463C203.429 143.965 205.436 141.914 205.443 139.878V138.896H207.172V139.878ZM200.331 149.619V148.271H212.431V149.619H200.331ZM218.891 138.882V140.2H215.419V141.445H218.393V142.705H215.419V144.067C217.001 144.053 218.1 143.987 219.389 143.76L219.564 145.034C218.034 145.312 216.774 145.371 214.73 145.371H213.852V138.882H218.891ZM215.683 151.143V146.543H224.618V151.143H215.683ZM217.309 149.824H223.007V147.832H217.309V149.824ZM218.964 142.617V141.299H220.458V138.281H222.011V145.884H220.458V142.617H218.964ZM223.065 145.986V138.062H224.618V145.986H223.065Z" fill="#7B808A"/>
<path d="M109.81 86.7607C110.086 86.7607 110.297 86.8435 110.46 86.9926C110.622 87.1416 110.703 87.3403 110.703 87.6218C110.703 87.9033 110.622 88.102 110.46 88.2345C110.297 88.3835 110.086 88.4498 109.81 88.4498H104.112V91.2813H108.706C108.982 91.2813 109.194 91.3476 109.356 91.4966C109.518 91.6456 109.583 91.8443 109.583 92.1093C109.583 92.3742 109.502 92.5895 109.356 92.7385C109.194 92.8876 108.982 92.9704 108.706 92.9704H104.112V96.2159C104.112 96.5305 104.031 96.7624 103.868 96.9445C103.706 97.1266 103.495 97.2094 103.219 97.2094C102.943 97.2094 102.7 97.1266 102.553 96.9445C102.391 96.7789 102.326 96.5305 102.326 96.2159V87.7708C102.326 87.4562 102.407 87.2244 102.586 87.0422C102.765 86.8601 102.992 86.7773 103.3 86.7773H109.827L109.81 86.7607Z" fill="#22D663"/>
<path d="M115.119 89.5752C115.363 89.5752 115.574 89.658 115.72 89.7905C115.866 89.9395 115.947 90.1382 115.947 90.4031C115.947 90.6681 115.866 90.8668 115.72 91.0158C115.574 91.1649 115.363 91.2311 115.119 91.2311C114.389 91.2311 113.837 91.4298 113.431 91.8438C113.025 92.2577 112.83 92.9201 112.83 93.8308V96.265C112.83 96.5465 112.749 96.7783 112.603 96.9439C112.457 97.1095 112.246 97.1758 111.986 97.1758C111.726 97.1758 111.515 97.093 111.369 96.9439C111.223 96.7783 111.142 96.5631 111.142 96.265V90.5191C111.142 90.2376 111.223 90.0223 111.369 89.8567C111.515 89.6911 111.726 89.6083 111.986 89.6083C112.246 89.6083 112.457 89.6911 112.603 89.8567C112.749 90.0223 112.83 90.2376 112.83 90.5191V90.8006H112.862C113.317 89.9892 114.08 89.5752 115.135 89.5752" fill="#22D663"/>
<path d="M117.149 88.4664C117.457 88.4664 117.701 88.367 117.879 88.1849C118.058 88.0028 118.155 87.7544 118.155 87.4397C118.155 87.1251 118.058 86.8767 117.879 86.6946C117.701 86.5124 117.457 86.4131 117.149 86.4131C116.84 86.4131 116.613 86.5124 116.434 86.6946C116.256 86.8767 116.158 87.1251 116.158 87.4397C116.158 87.7544 116.256 87.9862 116.434 88.1849C116.613 88.3836 116.856 88.4664 117.149 88.4664Z" fill="#22D663"/>
<path d="M117.166 89.625C116.906 89.625 116.695 89.7078 116.549 89.8734C116.402 90.039 116.321 90.2542 116.321 90.5357V96.2817C116.321 96.5632 116.402 96.795 116.549 96.9441C116.695 97.1096 116.906 97.1924 117.166 97.1924C117.425 97.1924 117.636 97.1096 117.782 96.9441C117.929 96.7785 118.01 96.5632 118.01 96.2817V90.5357C118.01 90.2542 117.929 90.039 117.782 89.8734C117.636 89.7078 117.425 89.625 117.166 89.625Z" fill="#22D663"/>
<path d="M125.769 95.9999C125.428 96.4139 125.022 96.7285 124.503 96.9438C124 97.1591 123.415 97.275 122.782 97.275C122.181 97.275 121.646 97.1756 121.158 96.9935C120.671 96.7948 120.249 96.5298 119.908 96.1987C119.567 95.8675 119.291 95.4535 119.113 94.9733C118.934 94.4931 118.837 93.9798 118.837 93.4002C118.837 92.8206 118.934 92.3073 119.113 91.8271C119.291 91.3469 119.567 90.9329 119.908 90.6017C120.249 90.254 120.655 89.989 121.142 89.8069C121.613 89.6247 122.149 89.5254 122.717 89.5254C123.237 89.5254 123.724 89.6082 124.178 89.7903C124.633 89.9725 125.022 90.2209 125.363 90.5189C125.704 90.817 125.948 91.1978 126.143 91.6118C126.321 92.0258 126.419 92.4729 126.419 92.9531V93.0359C126.419 93.334 126.321 93.5658 126.143 93.7479C125.964 93.9301 125.72 94.0129 125.428 94.0129H120.574C120.671 94.5593 120.915 94.9899 121.321 95.3045C121.71 95.6191 122.198 95.7847 122.782 95.7847C123.172 95.7847 123.513 95.7184 123.821 95.5694C124.129 95.4204 124.357 95.2382 124.535 95.023C124.698 94.8243 124.909 94.7083 125.152 94.7083C125.396 94.7083 125.591 94.7746 125.72 94.9236C125.867 95.0726 125.932 95.2548 125.932 95.4866C125.932 95.6688 125.867 95.8344 125.753 95.9999M122.717 91.0323C122.181 91.0323 121.727 91.1813 121.337 91.4793C120.947 91.7774 120.704 92.1583 120.59 92.655H124.811C124.698 92.1583 124.454 91.7609 124.081 91.4793C123.707 91.1813 123.253 91.0323 122.717 91.0323Z" fill="#22D663"/>
<path d="M131.192 89.5253C132.199 89.5253 132.962 89.8234 133.481 90.403C134.001 90.9825 134.261 91.8436 134.261 92.9696V96.2814C134.261 96.5629 134.18 96.7947 134.033 96.9603C133.887 97.1259 133.676 97.1921 133.417 97.1921C133.157 97.1921 132.946 97.1093 132.8 96.9603C132.654 96.7947 132.572 96.5795 132.572 96.2814V93.1518C132.572 92.4728 132.426 91.9595 132.118 91.6118C131.809 91.264 131.355 91.0819 130.754 91.0819C130.153 91.0819 129.65 91.2806 129.293 91.6946C128.936 92.1085 128.773 92.6715 128.773 93.367V96.2648C128.773 96.5463 128.692 96.7782 128.546 96.9438C128.4 97.1093 128.189 97.1756 127.929 97.1756C127.669 97.1756 127.458 97.0928 127.312 96.9438C127.166 96.7782 127.085 96.5629 127.085 96.2648V90.5189C127.085 90.2374 127.15 90.0056 127.312 89.84C127.458 89.6744 127.669 89.6081 127.929 89.6081C128.189 89.6081 128.4 89.6909 128.546 89.84C128.692 90.0056 128.773 90.2208 128.773 90.5189V90.5686H128.806C129.066 90.2374 129.39 89.989 129.796 89.7903C130.202 89.6081 130.657 89.5088 131.192 89.5088" fill="#22D663"/>
<path d="M141.826 86.2139C142.086 86.2139 142.297 86.2967 142.459 86.4623C142.605 86.6278 142.686 86.8431 142.686 87.1246V96.2817C142.686 96.5632 142.605 96.795 142.459 96.9606C142.313 97.1262 142.102 97.1925 141.826 97.1925C141.55 97.1925 141.371 97.1097 141.225 96.9606C141.079 96.795 140.998 96.5798 140.998 96.2817V96.1989H140.966C140.69 96.5467 140.332 96.8116 139.91 96.9938C139.488 97.1759 139.001 97.2753 138.465 97.2753C137.93 97.2753 137.443 97.1759 137.02 96.9938C136.582 96.8116 136.209 96.5467 135.9 96.2155C135.592 95.8677 135.348 95.4703 135.186 94.9901C135.024 94.5099 134.942 93.98 134.942 93.4005C134.942 92.8209 135.024 92.291 135.186 91.8108C135.348 91.3306 135.592 90.9166 135.9 90.5854C136.209 90.2377 136.582 89.9893 137.02 89.8072C137.459 89.625 137.93 89.5257 138.465 89.5257C139.001 89.5257 139.488 89.6085 139.91 89.8072C140.332 89.9893 140.69 90.2543 140.966 90.602H141.014V87.1246C141.014 86.8431 141.079 86.6278 141.225 86.4623C141.371 86.2967 141.566 86.2139 141.826 86.2139ZM138.79 95.7353C139.115 95.7353 139.407 95.6856 139.683 95.5697C139.959 95.4538 140.186 95.3047 140.381 95.0895C140.576 94.8908 140.722 94.6424 140.836 94.3609C140.949 94.0794 140.998 93.7648 140.998 93.4336C140.998 93.1024 140.949 92.7878 140.836 92.4897C140.722 92.2082 140.576 91.9598 140.381 91.7446C140.186 91.5459 139.943 91.3803 139.683 91.2643C139.407 91.1484 139.115 91.0988 138.79 91.0988C138.141 91.0988 137.621 91.314 137.215 91.7446C136.809 92.1751 136.615 92.7381 136.615 93.4336C136.615 94.1291 136.809 94.6755 137.215 95.106C137.621 95.5366 138.141 95.7518 138.79 95.7518" fill="#22D663"/>
<path d="M145.17 91.9605C145.17 92.0764 145.202 92.1757 145.251 92.242C145.3 92.3247 145.397 92.391 145.527 92.4407C145.657 92.4903 145.836 92.5235 146.047 92.5566C146.258 92.5897 146.534 92.5897 146.858 92.5897C148.027 92.5897 148.855 92.7718 149.359 93.1527C149.846 93.5336 150.089 94.1131 150.089 94.8914C150.089 95.6365 149.813 96.2161 149.245 96.6466C148.677 97.0606 147.897 97.2759 146.907 97.2759C146.128 97.2759 145.495 97.2096 144.991 97.0606C144.488 96.9281 144.05 96.6963 143.66 96.3651C143.482 96.2161 143.4 96.0174 143.4 95.769C143.4 95.5206 143.465 95.3219 143.611 95.1729C143.758 95.0239 143.936 94.9576 144.163 94.9576C144.326 94.9576 144.488 95.0073 144.65 95.1232C144.943 95.355 145.267 95.5206 145.608 95.62C145.949 95.7193 146.339 95.769 146.777 95.769C147.297 95.769 147.686 95.6862 147.979 95.5372C148.271 95.3716 148.417 95.1563 148.417 94.8583C148.417 94.6099 148.287 94.4277 148.044 94.3118C147.784 94.1959 147.329 94.1297 146.647 94.1297C145.511 94.1297 144.699 93.9475 144.212 93.5832C143.725 93.2189 143.482 92.6559 143.482 91.8942C143.482 91.1325 143.774 90.5695 144.342 90.139C144.91 89.7084 145.69 89.4932 146.68 89.4932C147.297 89.4932 147.832 89.5594 148.255 89.6753C148.677 89.7912 149.066 89.9899 149.424 90.2549C149.651 90.4205 149.764 90.6357 149.764 90.9007C149.764 91.1491 149.7 91.3478 149.553 91.4968C149.407 91.6458 149.229 91.7121 149.001 91.7121C148.888 91.7121 148.79 91.6955 148.677 91.6458C148.579 91.5962 148.482 91.5465 148.401 91.4802C147.962 91.1491 147.427 90.9835 146.761 90.9835C146.274 90.9835 145.868 91.0663 145.576 91.2319C145.284 91.3975 145.138 91.6293 145.138 91.9108" fill="#22D663"/>
<path d="M109.924 1.08395C90.4101 2.40867 74.5 20.5573 74.5 40.5108V86.6772C74.5 91.8105 78.0717 96.3973 83.0557 97.1259C89.2575 98.0367 94.5825 93.1518 94.5825 86.9918V40.2128C94.5825 30.8238 101.352 22.6106 110.509 21.6005C117.214 20.8554 123.286 23.9022 126.906 28.903C129.406 32.3473 130.754 36.7188 130.348 41.4216C129.52 50.9099 121.419 58.0302 112.067 58.0302H102.294V78.5136H111.775C131.338 78.5136 149.131 62.2859 150.414 42.382C151.94 18.918 132.945 -0.456031 109.924 1.08395Z" fill="#22D663"/>
<path d="M122.571 41.5218C123.724 34.4014 117.766 28.3243 110.769 29.4834C106.531 30.1955 103.122 33.6728 102.424 37.9947C101.271 45.1151 107.229 51.1922 114.227 50.0331C118.464 49.3211 121.873 45.8437 122.571 41.5218Z" fill="#14B6F7"/>
</svg>
