<svg width="16" height="16" viewBox="0 0 16 16" fill="none" xmlns="http://www.w3.org/2000/svg">
<g clip-path="url(#clip0_1261_88213)">
<path d="M15.3499 13.9252L11.2249 10.5752C12.9249 8.2502 12.7499 4.9252 10.6249 2.8252C9.4999 1.7002 7.9999 1.0752 6.3999 1.0752C4.7999 1.0752 3.2999 1.7002 2.1749 2.8252C-0.150098 5.1502 -0.150098 8.9502 2.1749 11.2752C3.2999 12.4002 4.7999 13.0252 6.3999 13.0252C7.9249 13.0252 9.3499 12.4502 10.4749 11.4252L14.6499 14.8002C14.7499 14.8752 14.8749 14.9252 14.9999 14.9252C15.1749 14.9252 15.3249 14.8502 15.4249 14.7252C15.6249 14.4752 15.5999 14.1252 15.3499 13.9252ZM6.3999 11.9002C5.0999 11.9002 3.8999 11.4002 2.9749 10.4752C1.0749 8.5752 1.0749 5.5002 2.9749 3.6252C3.8999 2.7002 5.0999 2.2002 6.3999 2.2002C7.6999 2.2002 8.8999 2.7002 9.8249 3.6252C11.7249 5.5252 11.7249 8.6002 9.8249 10.4752C8.9249 11.4002 7.6999 11.9002 6.3999 11.9002Z" fill="#23252A"/>
</g>
<defs>
<clipPath id="clip0_1261_88213">
<rect width="16" height="16" fill="white"/>
</clipPath>
</defs>
</svg>
