<svg width="80" height="80" viewBox="0 0 80 80" fill="none" xmlns="http://www.w3.org/2000/svg">
<path d="M12.3447 34.8994V60.2358C12.3447 63.0994 14.6629 65.4176 17.5265 65.4176H62.4629C65.3265 65.4176 67.6447 63.0994 67.6447 60.2358V34.8994H12.3447Z" fill="#F4F5F8"/>
<path d="M62.4724 66.2816H17.5269C14.1905 66.2816 11.4814 63.5634 11.4814 60.2361V34.8998C11.4814 34.418 11.8724 34.0361 12.3451 34.0361H67.6542C68.136 34.0361 68.5178 34.427 68.5178 34.8998V60.2361C68.5178 63.5634 65.8087 66.2816 62.4724 66.2816ZM13.2087 35.7634V60.2361C13.2087 62.618 15.1451 64.5543 17.5269 64.5543H62.4633C64.8451 64.5543 66.7814 62.618 66.7814 60.2361V35.7634H13.2087Z" fill="black"/>
<path d="M67.6538 29.5178C67.6538 26.6541 65.3356 24.3359 62.472 24.3359H17.5265C14.6629 24.3359 12.3447 26.6541 12.3447 29.5178V34.8996H67.6538V29.5178Z" fill="#22D663"/>
<path d="M67.6542 35.7636H12.3451C11.8633 35.7636 11.4814 35.3727 11.4814 34.8999V29.5181C11.4814 26.1817 14.1996 23.4727 17.5269 23.4727H62.4633C65.7996 23.4727 68.5087 26.1908 68.5087 29.5181V34.8999C68.5178 35.3727 68.136 35.7636 67.6542 35.7636ZM13.2087 34.0363H66.7905V29.5272C66.7905 27.1454 64.8542 25.209 62.4724 25.209H17.5269C15.1451 25.209 13.2087 27.1454 13.2087 29.5272V34.0363Z" fill="black"/>
<path d="M30.6172 29.6173C30.6172 28.6082 31.4354 27.79 32.4445 27.79H47.5536C48.5626 27.79 49.3808 28.6082 49.3808 29.6173C49.3808 30.6264 48.5626 31.4446 47.5536 31.4446H32.4445C31.4354 31.4355 30.6172 30.6264 30.6172 29.6173Z" fill="white"/>
<path d="M47.5539 32.3086H32.4448C30.963 32.3086 29.7539 31.0995 29.7539 29.6177C29.7539 28.1358 30.963 26.9268 32.4448 26.9268H47.5539C49.0357 26.9268 50.2448 28.1358 50.2448 29.6177C50.2448 31.0995 49.0357 32.3086 47.5539 32.3086ZM32.4448 28.654C31.9175 28.654 31.4812 29.0813 31.4812 29.6177C31.4812 30.154 31.9085 30.5813 32.4448 30.5813H47.5539C48.0812 30.5813 48.5175 30.154 48.5175 29.6177C48.5175 29.0813 48.0903 28.654 47.5539 28.654H32.4448Z" fill="black"/>
<path d="M45.8989 31.4356H34.0898V20.4901C34.0898 17.2265 36.7353 14.5811 39.9989 14.5811C43.2626 14.5811 45.908 17.2265 45.908 20.4901V31.4356H45.8989Z" fill="#DFDEDB"/>
<path d="M45.8993 32.3087H34.0902C33.6084 32.3087 33.2266 31.9178 33.2266 31.445V20.4905C33.2266 16.7541 36.2629 13.7178 39.9993 13.7178C43.7357 13.7178 46.772 16.7541 46.772 20.4905V31.445C46.772 31.9178 46.3811 32.3087 45.8993 32.3087ZM34.9538 30.5723H45.0357V20.4814C45.0357 17.6996 42.772 15.445 39.9993 15.445C37.2175 15.445 34.9538 17.7087 34.9538 20.4814V30.5723Z" fill="black"/>
<path d="M39.9994 23.0175C41.2898 23.0175 42.3358 21.9714 42.3358 20.6811C42.3358 19.3908 41.2898 18.3447 39.9994 18.3447C38.7091 18.3447 37.6631 19.3908 37.6631 20.6811C37.6631 21.9714 38.7091 23.0175 39.9994 23.0175Z" fill="white"/>
<path d="M39.9998 23.8724C38.2362 23.8724 36.7998 22.436 36.7998 20.6724C36.7998 18.9087 38.2362 17.4814 39.9998 17.4814C41.7634 17.4814 43.1998 18.9178 43.1998 20.6814C43.1998 22.4451 41.7634 23.8724 39.9998 23.8724ZM39.9998 19.2087C39.1907 19.2087 38.5271 19.8724 38.5271 20.6814C38.5271 21.4905 39.1907 22.1542 39.9998 22.1542C40.8089 22.1542 41.4725 21.4905 41.4725 20.6814C41.4725 19.8724 40.8089 19.2087 39.9998 19.2087Z" fill="black"/>
<path d="M36.4906 43.9356V56.3811C36.4906 57.8175 35.3269 58.972 33.8997 58.972H19.836C18.3997 58.972 17.2451 57.8084 17.2451 56.3811V43.9356C17.2451 42.4993 18.4088 41.3447 19.836 41.3447H33.8997C35.3269 41.3447 36.4906 42.4993 36.4906 43.9356Z" fill="#14B6F7"/>
<path d="M33.8909 59.836H19.8364C17.9273 59.836 16.3818 58.2814 16.3818 56.3814V43.936C16.3818 42.0269 17.9364 40.4814 19.8364 40.4814H33.9C35.8091 40.4814 37.3546 42.036 37.3546 43.936V56.3814C37.3546 58.2905 35.8 59.836 33.8909 59.836ZM19.8364 42.2087C18.8818 42.2087 18.1091 42.9814 18.1091 43.936V56.3814C18.1091 57.336 18.8818 58.1087 19.8364 58.1087H33.9C34.8546 58.1087 35.6273 57.336 35.6273 56.3814V43.936C35.6273 42.9814 34.8546 42.2087 33.9 42.2087H19.8364Z" fill="black"/>
<path d="M33.191 59.8358H20.5365C20.0547 59.8358 19.6729 59.4449 19.6729 58.9722C19.6729 55.0085 22.9001 51.7812 26.8638 51.7812C30.8274 51.7812 34.0547 55.0085 34.0547 58.9722C34.0547 59.454 33.6729 59.8358 33.191 59.8358ZM21.4729 58.1085H32.2638C31.8456 55.5085 29.591 53.5085 26.8729 53.5085C24.1547 53.5085 21.891 55.5085 21.4729 58.1085Z" fill="black"/>
<path d="M26.8638 53.5089C24.8456 53.5089 23.2002 51.8635 23.2002 49.8453C23.2002 47.8271 24.8456 46.1816 26.8638 46.1816C28.882 46.1816 30.5275 47.8271 30.5275 49.8453C30.5275 51.8635 28.882 53.5089 26.8638 53.5089ZM26.8638 47.9089C25.8002 47.9089 24.9275 48.7816 24.9275 49.8453C24.9275 50.9089 25.8002 51.7816 26.8638 51.7816C27.9275 51.7816 28.8002 50.9089 28.8002 49.8453C28.8002 48.7816 27.9366 47.9089 26.8638 47.9089Z" fill="black"/>
<path d="M61.872 42.4997H43.8265C43.3447 42.4997 42.9629 42.1088 42.9629 41.6361C42.9629 41.1543 43.3538 40.7725 43.8265 40.7725H61.872C62.3538 40.7725 62.7356 41.1634 62.7356 41.6361C62.7356 42.1179 62.3447 42.4997 61.872 42.4997Z" fill="black"/>
<path d="M61.872 48.1814H43.8265C43.3447 48.1814 42.9629 47.7905 42.9629 47.3177C42.9629 46.845 43.3538 46.4541 43.8265 46.4541H61.872C62.3538 46.4541 62.7356 46.845 62.7356 47.3177C62.7356 47.7905 62.3447 48.1814 61.872 48.1814Z" fill="black"/>
<path d="M61.872 53.863H43.8265C43.3447 53.863 42.9629 53.4721 42.9629 52.9994C42.9629 52.5267 43.3538 52.1357 43.8265 52.1357H61.872C62.3538 52.1357 62.7356 52.5267 62.7356 52.9994C62.7356 53.4721 62.3447 53.863 61.872 53.863Z" fill="black"/>
<path d="M61.872 59.5359H43.8265C43.3447 59.5359 42.9629 59.145 42.9629 58.6722C42.9629 58.1904 43.3538 57.8086 43.8265 57.8086H61.872C62.3538 57.8086 62.7356 58.1995 62.7356 58.6722C62.7356 59.154 62.3447 59.5359 61.872 59.5359Z" fill="black"/>
</svg>
