<svg width="46" height="46" viewBox="0 0 46 46" fill="none" xmlns="http://www.w3.org/2000/svg">
<rect x="0.5" y="0.5" width="45" height="45" rx="22.5" fill="#F5F6FD"/>
<rect x="0.5" y="0.5" width="45" height="45" rx="22.5" stroke="#E2E8F0"/>
<path d="M31.9061 25.9064L25.2186 15.146C24.6874 14.4272 23.8749 14.021 22.9999 14.021C22.0936 14.021 21.2811 14.4272 20.7811 15.146L14.0936 25.9064C13.4686 26.7502 13.3749 27.8439 13.8436 28.7814C14.3124 29.7189 15.2499 30.3127 16.3124 30.3127H29.6874C30.7499 30.3127 31.6874 29.7189 32.1561 28.7814C32.6249 27.8752 32.5311 26.7502 31.9061 25.9064ZM30.9061 28.1564C30.6561 28.6252 30.2186 28.9064 29.6874 28.9064H16.3124C15.7811 28.9064 15.3436 28.6252 15.0936 28.1564C14.8749 27.6877 14.9061 27.1564 15.2186 26.7502L21.9061 15.9897C22.1561 15.646 22.5624 15.4272 22.9999 15.4272C23.4374 15.4272 23.8436 15.6147 24.0936 15.9897L30.7811 26.7502C31.0936 27.1564 31.1249 27.6877 30.9061 28.1564Z" fill="#C6CED7"/>
<path d="M23 19.8335C22.625 19.8335 22.2812 20.146 22.2812 20.5522V23.9585C22.2812 24.3335 22.5937 24.6772 23 24.6772C23.4062 24.6772 23.7187 24.3647 23.7187 23.9585V20.521C23.7187 20.146 23.375 19.8335 23 19.8335Z" fill="#C6CED7"/>
<path d="M23 25.5C22.625 25.5 22.2812 25.8125 22.2812 26.2187V26.375C22.2812 26.75 22.5937 27.0938 23 27.0938C23.4062 27.0938 23.7187 26.7812 23.7187 26.375V26.1875C23.7187 25.8125 23.375 25.5 23 25.5Z" fill="#C6CED7"/>
</svg>
