<svg width="80" height="80" viewBox="0 0 80 80" fill="none" xmlns="http://www.w3.org/2000/svg">
<path d="M24.2847 54.5266L20.5677 53.6746L18.8457 52.0006L20.9997 40.0006L23.2307 38.8396L24.4927 39.0626C24.8122 39.1222 25.1405 39.1155 25.4574 39.0431C25.7742 38.9707 26.0728 38.8341 26.3347 38.6416L32.9997 33.6416C33.3851 33.3612 33.8262 33.1667 34.2932 33.0713C34.7602 32.9759 35.2422 32.9818 35.7067 33.0886L42.2347 34.8676L55.9997 54.0006L55.6227 55.2316C55.748 55.5098 55.8128 55.8115 55.8127 56.1166C55.8212 56.5864 55.6904 57.0481 55.4368 57.4436C55.1831 57.839 54.818 58.1505 54.3876 58.3387C53.9571 58.5268 53.4805 58.5833 53.018 58.5009C52.5555 58.4185 52.1277 58.2009 51.7887 57.8756L52.4737 58.5416C52.6994 58.7572 52.8803 59.0153 53.0059 59.3011C53.1315 59.5869 53.1993 59.8946 53.2056 60.2067C53.2118 60.5188 53.1562 60.829 53.0421 61.1195C52.928 61.4101 52.7576 61.6752 52.5407 61.8996C52.3252 62.1256 52.0672 62.3066 51.7814 62.4324C51.4956 62.5581 51.1878 62.6261 50.8757 62.6323C50.5635 62.6385 50.2532 62.5829 49.9626 62.4687C49.6721 62.3544 49.407 62.1838 49.1827 61.9666L48.4977 61.3096C48.7236 61.5251 48.9045 61.7832 49.0302 62.0689C49.1558 62.3547 49.2236 62.6625 49.2297 62.9746C49.2401 63.445 49.1106 63.9079 48.8578 64.3047C48.605 64.7015 48.2402 65.0144 47.8095 65.2038C47.3788 65.3932 46.9016 65.4506 46.4383 65.3686C45.975 65.2867 45.5464 65.0692 45.2067 64.7436L44.5067 64.0876C44.965 64.5223 45.2319 65.1212 45.2487 65.7526C45.254 66.3819 45.0153 66.9887 44.5827 67.4456C44.3663 67.6717 44.1074 67.8527 43.8209 67.9785C43.5343 68.1042 43.2258 68.172 42.9129 68.1782C42.6001 68.1843 42.2891 68.1286 41.9978 68.0142C41.7066 67.8998 41.4408 67.729 41.2157 67.5116L39.4657 65.8376L24.2847 54.5266Z" fill="#ECCCC5"/>
<path d="M40.4065 11.2545L42.9405 16.3385L48.6065 17.1545C48.6899 17.1658 48.7683 17.2004 48.8329 17.2542C48.8975 17.308 48.9457 17.379 48.9719 17.4589C48.9981 17.5388 49.0012 17.6245 48.981 17.7061C48.9608 17.7877 48.918 17.862 48.8575 17.9205L44.7575 21.8805L45.7265 27.4715C45.74 27.5547 45.7301 27.64 45.6977 27.7178C45.6654 27.7957 45.612 27.8629 45.5435 27.9121C45.4751 27.9612 45.3942 27.9903 45.3101 27.996C45.2261 28.0017 45.142 27.9839 45.0675 27.9445L40.0845 25.3505C40.0576 25.3367 40.0278 25.3295 39.9975 25.3295C39.9673 25.3295 39.9375 25.3367 39.9105 25.3505L34.9295 27.9475C34.855 27.9869 34.771 28.0047 34.6869 27.999C34.6028 27.9933 34.522 27.9642 34.4535 27.9151C34.3851 27.8659 34.3317 27.7987 34.2993 27.7208C34.267 27.643 34.257 27.5577 34.2705 27.4745L35.2395 21.8835L31.1395 17.9235C31.0791 17.865 31.0363 17.7907 31.0161 17.7091C30.9959 17.6275 30.999 17.5418 31.0252 17.4619C31.0514 17.382 31.0995 17.311 31.1641 17.2572C31.2288 17.2034 31.3072 17.1688 31.3905 17.1575L37.0545 16.3415H37.0615L39.5945 11.2595C39.6315 11.1836 39.689 11.1195 39.7605 11.0745C39.8319 11.0295 39.9145 11.0054 39.999 11.0049C40.0834 11.0044 40.1663 11.0275 40.2384 11.0716C40.3104 11.1157 40.3686 11.179 40.4065 11.2545Z" fill="#FFD62C"/>
<path d="M24.2709 20.1798L25.9609 23.7688L29.7389 24.3448C29.796 24.3558 29.849 24.3822 29.8923 24.421C29.9355 24.4598 29.9674 24.5097 29.9846 24.5652C30.0017 24.6208 30.0035 24.6799 29.9896 24.7364C29.9758 24.7928 29.9468 24.8445 29.9059 24.8858L27.1719 27.6808L27.8169 31.6278C27.8285 31.6842 27.8239 31.7428 27.8037 31.7968C27.7834 31.8508 27.7483 31.8979 27.7025 31.9328C27.6566 31.9677 27.6018 31.989 27.5444 31.9941C27.487 31.9992 27.4293 31.988 27.3779 31.9618L24.0559 30.1308C24.0383 30.1205 24.0183 30.1151 23.9979 30.1151C23.9776 30.1151 23.9575 30.1205 23.9399 30.1308L20.6199 31.9638C20.5686 31.99 20.5109 32.0012 20.4535 31.9961C20.3961 31.991 20.3413 31.9697 20.2954 31.9348C20.2495 31.8999 20.2144 31.8528 20.1942 31.7988C20.1739 31.7448 20.1693 31.6862 20.1809 31.6298L20.8259 27.6828L18.0919 24.8878C18.051 24.8465 18.0221 24.7948 18.0083 24.7384C17.9944 24.6819 17.9962 24.6228 18.0133 24.5672C18.0304 24.5117 18.0624 24.4618 18.1056 24.423C18.1489 24.3842 18.2019 24.3578 18.2589 24.3468L22.0349 23.7708L23.7239 20.1828C23.7453 20.1278 23.7827 20.0804 23.8313 20.047C23.8799 20.0135 23.9374 19.9954 23.9964 19.9951C24.0554 19.9948 24.1132 20.0122 24.1621 20.0452C24.2111 20.0781 24.249 20.125 24.2709 20.1798Z" fill="#FFD62C"/>
<path d="M56.2709 20.1795L57.9609 23.7685L61.7389 24.3445C61.796 24.3556 61.849 24.3819 61.8923 24.4207C61.9355 24.4596 61.9674 24.5094 61.9846 24.5649C62.0017 24.6205 62.0034 24.6796 61.9896 24.7361C61.9758 24.7926 61.9468 24.8442 61.9059 24.8855L59.1719 27.6805L59.8169 31.6275C59.8285 31.684 59.8239 31.7426 59.8037 31.7965C59.7834 31.8505 59.7483 31.8976 59.7025 31.9325C59.6566 31.9674 59.6018 31.9887 59.5444 31.9938C59.487 31.9989 59.4293 31.9877 59.3779 31.9615L56.0559 30.1305C56.0383 30.1202 56.0183 30.1148 55.9979 30.1148C55.9776 30.1148 55.9575 30.1202 55.9399 30.1305L52.6199 31.9635C52.5686 31.9897 52.5109 32.0009 52.4535 31.9958C52.3961 31.9907 52.3413 31.9694 52.2954 31.9345C52.2495 31.8996 52.2144 31.8525 52.1942 31.7985C52.1739 31.7445 52.1693 31.686 52.1809 31.6295L52.8259 27.6825L50.0919 24.8875C50.051 24.8462 50.0221 24.7946 50.0083 24.7381C49.9944 24.6816 49.9962 24.6225 50.0133 24.5669C50.0304 24.5114 50.0624 24.4616 50.1056 24.4227C50.1489 24.3839 50.2019 24.3576 50.2589 24.3465L54.0349 23.7705H54.0399L55.7289 20.1825C55.7511 20.129 55.7885 20.0833 55.8365 20.051C55.8846 20.0187 55.9411 20.0013 55.9989 20.001C56.0568 20.0007 56.1135 20.0174 56.1619 20.0492C56.2103 20.0809 56.2482 20.1263 56.2709 20.1795Z" fill="#FFD62C"/>
<path d="M39.1801 66.2101L37.2001 68.2701C36.9844 68.4959 36.7262 68.6768 36.4404 68.8025C36.1546 68.9283 35.8468 68.9963 35.5346 69.0028C35.2225 69.0093 34.9121 68.9542 34.6213 68.8404C34.3305 68.7267 34.065 68.5567 33.8401 68.3401C33.3932 67.8995 33.1359 67.3018 33.1228 66.6743C33.1097 66.0469 33.3419 65.439 33.7701 64.9801L33.1101 65.6601C32.8944 65.8859 32.6362 66.0668 32.3504 66.1925C32.0646 66.3183 31.7568 66.3863 31.4446 66.3928C31.1325 66.3993 30.8221 66.3441 30.5313 66.2304C30.2405 66.1167 29.975 65.9467 29.7501 65.7301C29.303 65.2896 29.0455 64.6919 29.0324 64.0644C29.0193 63.4368 29.2517 62.8289 29.6801 62.3701C29.4644 62.5959 29.2062 62.7768 28.9204 62.9025C28.6346 63.0283 28.3268 63.0963 28.0146 63.1028C27.7025 63.1093 27.3921 63.0541 27.1013 62.9404C26.8105 62.8267 26.545 62.6567 26.3201 62.4401C25.8707 61.9988 25.6118 61.3991 25.5987 60.7694C25.5856 60.1396 25.8194 59.5298 26.2501 59.0701C26.0343 59.2958 25.7761 59.4766 25.4903 59.6022C25.2045 59.7279 24.8967 59.7959 24.5846 59.8024C24.2725 59.8089 23.9621 59.7538 23.6714 59.6401C23.3806 59.5265 23.1151 59.3566 22.8901 59.1401C22.443 58.6996 22.1855 58.1019 22.1724 57.4744C22.1593 56.8468 22.3917 56.2389 22.8201 55.7801L24.7901 53.7201C25.2279 53.2643 25.8287 53.0009 26.4606 52.9878C27.0925 52.9747 27.7037 53.2129 28.1601 53.6501C28.6028 54.0931 28.8573 54.6899 28.8704 55.3161C28.8834 55.9422 28.654 56.5491 28.2301 57.0101L28.8801 56.3301C29.3179 55.8743 29.9187 55.6109 30.5506 55.5978C31.1825 55.5847 31.7937 55.8229 32.2501 56.2601C32.6935 56.7033 32.9476 57.3012 32.9588 57.928C32.97 58.5548 32.7374 59.1615 32.3101 59.6201L32.9701 58.9401C33.4079 58.4843 34.0087 58.2209 34.6406 58.2078C35.2725 58.1947 35.8837 58.4329 36.3401 58.8701C36.7835 59.3133 37.0376 59.9112 37.0488 60.538C37.06 61.1648 36.8274 61.7715 36.4001 62.2301L35.7401 62.9201H35.7501C35.9658 62.6944 36.224 62.5135 36.5098 62.3877C36.7956 62.262 37.1034 62.1939 37.4155 62.1874C37.7277 62.1809 38.0381 62.2361 38.3289 62.3498C38.6197 62.4636 38.8852 62.6336 39.1101 62.8501C39.5549 63.2919 39.8108 63.8892 39.8238 64.516C39.8369 65.1428 39.6061 65.7502 39.1801 66.2101Z" fill="#E2A698"/>
<path d="M39.1801 66.2101L37.2001 68.2701C36.9844 68.4959 36.7262 68.6768 36.4404 68.8025C36.1546 68.9283 35.8468 68.9963 35.5346 69.0028C35.2225 69.0093 34.9121 68.9542 34.6213 68.8404C34.3305 68.7267 34.065 68.5567 33.8401 68.3401C33.3932 67.8995 33.1359 67.3018 33.1228 66.6743C33.1097 66.0469 33.3419 65.439 33.7701 64.9801L33.1101 65.6601C32.8944 65.8859 32.6362 66.0668 32.3504 66.1925C32.0646 66.3183 31.7568 66.3863 31.4446 66.3928C31.1325 66.3993 30.8221 66.3441 30.5313 66.2304C30.2405 66.1167 29.975 65.9467 29.7501 65.7301C29.303 65.2896 29.0455 64.6919 29.0324 64.0644C29.0193 63.4368 29.2517 62.8289 29.6801 62.3701C29.4644 62.5959 29.2062 62.7768 28.9204 62.9025C28.6346 63.0283 28.3268 63.0963 28.0146 63.1028C27.7025 63.1093 27.3921 63.0541 27.1013 62.9404C26.8105 62.8267 26.545 62.6567 26.3201 62.4401C25.8707 61.9988 25.6118 61.3991 25.5987 60.7694C25.5856 60.1396 25.8194 59.5298 26.2501 59.0701C26.0343 59.2958 25.7761 59.4766 25.4903 59.6022C25.2045 59.7279 24.8967 59.7959 24.5846 59.8024C24.2725 59.8089 23.9621 59.7538 23.6714 59.6401C23.3806 59.5265 23.1151 59.3566 22.8901 59.1401C22.443 58.6996 22.1855 58.1019 22.1724 57.4744C22.1593 56.8468 22.3917 56.2389 22.8201 55.7801L24.7901 53.7201C25.2279 53.2643 25.8287 53.0009 26.4606 52.9878C27.0925 52.9747 27.7037 53.2129 28.1601 53.6501C28.6028 54.0931 28.8573 54.6899 28.8704 55.3161C28.8834 55.9422 28.654 56.5491 28.2301 57.0101L28.8801 56.3301C29.3179 55.8743 29.9187 55.6109 30.5506 55.5978C31.1825 55.5847 31.7937 55.8229 32.2501 56.2601C32.6935 56.7033 32.9476 57.3012 32.9588 57.928C32.97 58.5548 32.7374 59.1615 32.3101 59.6201L32.9701 58.9401C33.4079 58.4843 34.0087 58.2209 34.6406 58.2078C35.2725 58.1947 35.8837 58.4329 36.3401 58.8701C36.7835 59.3133 37.0376 59.9112 37.0488 60.538C37.06 61.1648 36.8274 61.7715 36.4001 62.2301L35.7401 62.9201H35.7501C35.9658 62.6944 36.224 62.5135 36.5098 62.3877C36.7956 62.262 37.1034 62.1939 37.4155 62.1874C37.7277 62.1809 38.0381 62.2361 38.3289 62.3498C38.6197 62.4636 38.8852 62.6336 39.1101 62.8501C39.5549 63.2919 39.8108 63.8892 39.8238 64.516C39.8369 65.1428 39.6061 65.7502 39.1801 66.2101Z" fill="#E2A698"/>
<path d="M29.68 62.3681C29.4643 62.5938 29.2062 62.7748 28.9204 62.9005C28.6346 63.0262 28.3267 63.0943 28.0146 63.1008C27.7024 63.1073 27.392 63.0521 27.1012 62.9384C26.8104 62.8247 26.545 62.6546 26.32 62.4381C25.8709 61.9968 25.6122 61.3973 25.5992 60.7678C25.5861 60.1383 25.8197 59.5287 26.25 59.0691L28.88 56.3291C29.318 55.8735 29.9188 55.6103 30.5506 55.5972C31.1824 55.5841 31.7935 55.8221 32.25 56.2591C32.693 56.7025 32.9468 57.3004 32.958 57.927C32.9691 58.5536 32.7369 59.1602 32.31 59.6191L29.68 62.3681Z" fill="#D1968B"/>
<path d="M35.7504 62.9188C35.9662 62.693 36.2243 62.5121 36.5101 62.3864C36.7959 62.2606 37.1037 62.1926 37.4159 62.1861C37.7281 62.1796 38.0385 62.2347 38.3292 62.3485C38.62 62.4622 38.8855 62.6322 39.1104 62.8488C39.5563 63.2898 39.813 63.8871 39.8261 64.5141C39.8391 65.1411 39.6076 65.7486 39.1804 66.2078L37.2004 68.2678C36.9847 68.4935 36.7266 68.6744 36.4408 68.8002C36.155 68.9259 35.8471 68.994 35.535 69.0005C35.2228 69.007 34.9124 68.9518 34.6216 68.8381C34.3308 68.7243 34.0654 68.5543 33.8404 68.3378C33.3915 67.8984 33.1327 67.3006 33.1197 66.6726C33.1066 66.0446 33.3402 65.4364 33.7704 64.9788L35.7504 62.9188Z" fill="#D1968B"/>
<path d="M59.3004 54.2268L55.6204 55.2268C55.4952 54.932 55.3103 54.6665 55.0774 54.4468L42.1604 42.0468C42.0142 41.9066 41.8417 41.7967 41.653 41.7233C41.4642 41.6498 41.2629 41.6143 41.0604 41.6188L39.6604 41.6478C39.4555 41.6494 39.253 41.6923 39.0651 41.774C38.8771 41.8556 38.7075 41.9742 38.5664 42.1228L34.6004 46.2518C34.314 46.5503 33.9716 46.7893 33.5927 46.9553C33.2138 47.1212 32.8058 47.2107 32.3922 47.2187C31.9787 47.2267 31.5676 47.153 31.1825 47.0018C30.7975 46.8507 30.4461 46.625 30.1484 46.3378C29.6413 45.8502 29.33 45.194 29.2734 44.4928C29.2215 43.7922 29.4313 43.0974 29.8624 42.5428L33.4004 38.0618C33.9265 37.4049 34.6452 36.9293 35.4554 36.7018L43.4454 34.5328C43.9062 34.4106 44.3877 34.3873 44.8582 34.4644C45.3287 34.5414 45.7776 34.717 46.1754 34.9798L52.9194 39.4418C53.1896 39.625 53.4949 39.75 53.8159 39.8088C54.137 39.8677 54.4668 39.8592 54.7844 39.7838L56.0304 39.5178L57.0004 40.0008L60.0004 53.0008L59.3004 54.2268Z" fill="#E2A698"/>
<path d="M63.3504 55.1908L60.9304 55.6208C60.5881 55.6777 60.2371 55.6017 59.949 55.4084C59.6609 55.2151 59.4575 54.9191 59.3804 54.5808L56.0004 39.3708C55.9634 39.1934 55.9622 39.0105 55.9966 38.8326C56.0311 38.6547 56.1006 38.4854 56.2011 38.3346C56.3016 38.1839 56.4311 38.0546 56.5821 37.9544C56.733 37.8542 56.9024 37.785 57.0804 37.7508L59.4004 37.3408L61.0004 38.0008L64.0004 53.0008L63.3504 55.1908Z" fill="#E2E2ED"/>
<path d="M23.25 38.6908L20.5 54.0308C20.4398 54.3721 20.2503 54.677 19.9708 54.8819C19.6914 55.0868 19.3436 55.176 19 55.1308L16.56 54.8008L16 53.0008L18 38.0008L19.78 36.8008L22.11 37.1208C22.2892 37.1462 22.4615 37.2074 22.6166 37.3008C22.7716 37.3941 22.9064 37.5177 23.0127 37.6642C23.1191 37.8107 23.1949 37.977 23.2357 38.1534C23.2764 38.3297 23.2813 38.5125 23.25 38.6908Z" fill="#E2E2ED"/>
<path d="M19.79 36.7307L16.05 57.6507C15.9882 58.0004 15.7931 58.3125 15.5059 58.5214C15.2187 58.7302 14.8617 58.8196 14.51 58.7707L11.865 58.4087C11.6254 58.3761 11.4057 58.2577 11.2466 58.0755C11.0876 57.8933 11 57.6596 11 57.4177V35.2267C11 35.084 11.0305 34.9429 11.0896 34.8129C11.1486 34.683 11.2348 34.5672 11.3423 34.4733C11.4498 34.3794 11.5762 34.3096 11.7129 34.2687C11.8496 34.2277 11.9936 34.2164 12.135 34.2357L18.62 35.1207C18.8042 35.1458 18.9815 35.208 19.1411 35.3034C19.3007 35.3988 19.4393 35.5256 19.5486 35.676C19.6579 35.8264 19.7357 35.9974 19.7772 36.1787C19.8186 36.3599 19.823 36.5477 19.79 36.7307Z" fill="#22D663"/>
<path d="M68.9999 35.2848V57.6228C69 57.8577 68.9174 58.0852 68.7666 58.2653C68.6157 58.4454 68.4063 58.5667 68.1749 58.6078L65.5749 59.0708C65.2244 59.1331 64.8633 59.0577 64.567 58.8602C64.2707 58.6627 64.0622 58.3584 63.9849 58.0108L59.3899 37.2708C59.3492 37.0893 59.3456 36.9014 59.3793 36.7185C59.413 36.5356 59.4833 36.3613 59.5861 36.2063C59.6888 36.0512 59.8219 35.9185 59.9772 35.8162C60.1325 35.7139 60.3069 35.644 60.4899 35.6108L67.8239 34.3008C67.9679 34.275 68.1157 34.2812 68.2569 34.3187C68.3982 34.3563 68.5295 34.4244 68.6417 34.5182C68.7538 34.612 68.844 34.7293 68.9059 34.8617C68.9678 34.9942 68.9999 35.1386 68.9999 35.2848Z" fill="#14B6F7"/>
<path d="M48.754 16.1659L43.6 15.4249L41.3 10.8079C41.1794 10.5663 40.9939 10.3632 40.7642 10.2211C40.5346 10.0791 40.27 10.0039 40 10.0039C39.73 10.0039 39.4653 10.0791 39.2357 10.2211C39.0061 10.3632 38.8206 10.5663 38.7 10.8079L36.4 15.4259L31.25 16.1669C30.9815 16.2053 30.7293 16.3182 30.5219 16.493C30.3145 16.6677 30.1603 16.8971 30.077 17.1551C29.9936 17.4132 29.9844 17.6894 30.0503 17.9525C30.1162 18.2155 30.2547 18.4547 30.45 18.6429L34.17 22.2339L33.293 27.3039C33.2458 27.57 33.2746 27.844 33.3762 28.0945C33.4777 28.345 33.6478 28.5617 33.867 28.7199C34.0859 28.8808 34.3457 28.9768 34.6166 28.997C34.8875 29.0172 35.1587 28.9606 35.399 28.8339L40 26.4359L44.607 28.8359C44.8473 28.9621 45.1181 29.0185 45.3888 28.9986C45.6595 28.9788 45.9192 28.8835 46.1385 28.7237C46.3578 28.5638 46.528 28.3456 46.6297 28.094C46.7314 27.8424 46.7606 27.5673 46.714 27.2999L45.837 22.2309L49.557 18.6399C49.7521 18.4516 49.8905 18.2123 49.9564 17.9492C50.0223 17.6862 50.0131 17.4099 49.9297 17.1518C49.8464 16.8938 49.6923 16.6643 49.4849 16.4894C49.2776 16.3146 49.0254 16.2015 48.757 16.1629L48.754 16.1659ZM44.066 21.1659C43.9484 21.2793 43.8603 21.4199 43.8096 21.5752C43.7589 21.7305 43.747 21.8959 43.775 22.0569L44.554 26.5569L40.554 24.4749C40.3842 24.3861 40.1955 24.3398 40.004 24.3398C39.8124 24.3398 39.6237 24.3861 39.454 24.4749L35.454 26.5589L36.233 22.0589C36.261 21.8979 36.2491 21.7325 36.1983 21.5772C36.1476 21.4219 36.0596 21.2813 35.942 21.1679L32.643 17.9859L37.2 17.3319C37.2592 17.3234 37.3174 17.3093 37.374 17.2899C37.6282 17.2046 37.8384 17.0224 37.959 16.7829L40 12.6789L42.046 16.7849C42.1189 16.93 42.2258 17.0553 42.3576 17.1502C42.4894 17.2451 42.6422 17.3068 42.803 17.3299L47.357 17.9859L44.066 21.1659Z" fill="#262626"/>
<path d="M26.6402 22.8618L25.1772 19.7528C25.0723 19.5295 24.9059 19.3406 24.6975 19.2084C24.4892 19.0761 24.2475 19.0059 24.0007 19.0059C23.754 19.0059 23.5123 19.0761 23.304 19.2084C23.0956 19.3406 22.9292 19.5295 22.8242 19.7528L21.3622 22.8608L18.1092 23.3608C17.8716 23.3978 17.6488 23.4996 17.4653 23.655C17.2818 23.8105 17.1448 24.0135 17.0692 24.2418C16.9913 24.4731 16.9789 24.7215 17.0334 24.9595C17.088 25.1974 17.2073 25.4156 17.3782 25.5898L19.7582 28.0198L19.1932 31.4688C19.152 31.7133 19.1808 31.9646 19.2763 32.1934C19.3719 32.4222 19.5303 32.6193 19.7332 32.7618C19.9311 32.9025 20.1647 32.9843 20.4071 32.998C20.6495 33.0116 20.8908 32.9564 21.1032 32.8388L24.0032 31.2388L26.9032 32.8388C27.1189 32.9555 27.3631 33.009 27.6078 32.9934C27.8525 32.9777 28.0878 32.8935 28.2869 32.7504C28.486 32.6072 28.6408 32.4109 28.7335 32.1839C28.8262 31.9569 28.8532 31.7084 28.8112 31.4668L28.2462 28.0188L30.6272 25.5848C30.7982 25.4106 30.9175 25.1924 30.9721 24.9545C31.0266 24.7165 31.0142 24.4681 30.9362 24.2368C30.8606 24.0084 30.7234 23.8052 30.5398 23.6498C30.3561 23.4943 30.1331 23.3926 29.8952 23.3558L26.6402 22.8618ZM26.4592 26.9818C26.3496 27.094 26.2678 27.2303 26.2205 27.3799C26.1733 27.5294 26.1619 27.688 26.1872 27.8428L26.6042 30.3938L24.5422 29.2568C24.3768 29.1643 24.1903 29.1158 24.0007 29.1158C23.8112 29.1158 23.6247 29.1643 23.4592 29.2568L21.4002 30.3938L21.8172 27.8428C21.8426 27.688 21.8312 27.5294 21.784 27.3799C21.7367 27.2303 21.6549 27.094 21.5452 26.9818L19.7352 25.1328L22.1902 24.7588C22.3534 24.7335 22.508 24.6686 22.6403 24.5697C22.7726 24.4709 22.8787 24.3411 22.9492 24.1918L24.0002 21.9498L25.0512 24.1838C25.1216 24.3371 25.2294 24.4703 25.3646 24.5711C25.4998 24.6719 25.6582 24.7372 25.8252 24.7608L28.2692 25.1328L26.4592 26.9818Z" fill="#262626"/>
<path d="M62.9322 24.2378C62.8566 24.0094 62.7194 23.8062 62.5358 23.6508C62.3521 23.4953 62.1291 23.3936 61.8912 23.3568L58.6402 22.8618L57.1772 19.7528C57.0723 19.5295 56.9059 19.3406 56.6975 19.2084C56.4892 19.0761 56.2475 19.0059 56.0007 19.0059C55.754 19.0059 55.5123 19.0761 55.304 19.2084C55.0956 19.3406 54.9292 19.5295 54.8242 19.7528L53.3622 22.8608L50.1092 23.3608C49.8716 23.3978 49.6488 23.4996 49.4653 23.655C49.2818 23.8105 49.1448 24.0135 49.0692 24.2418C48.9913 24.4731 48.9789 24.7215 49.0334 24.9595C49.088 25.1974 49.2073 25.4156 49.3782 25.5898L51.7592 28.0238L51.1942 31.4728C51.153 31.7173 51.1818 31.9686 51.2773 32.1974C51.3729 32.4262 51.5313 32.6233 51.7342 32.7658C51.9321 32.9065 52.1657 32.9883 52.4081 33.0019C52.6505 33.0156 52.8918 32.9604 53.1042 32.8428L56.0043 31.2428L58.9042 32.8428C59.1199 32.9595 59.3641 33.013 59.6088 32.9974C59.8535 32.9817 60.0888 32.8975 60.2879 32.7544C60.487 32.6112 60.6418 32.4149 60.7345 32.1879C60.8272 31.9609 60.8542 31.7124 60.8122 31.4708L60.2473 28.0228L62.6282 25.5888C62.7989 25.4138 62.9176 25.1948 62.9713 24.9563C63.025 24.7178 63.0114 24.4691 62.9322 24.2378ZM58.4592 26.9818C58.3496 27.094 58.2678 27.2303 58.2205 27.3799C58.1733 27.5294 58.1619 27.688 58.1872 27.8428L58.6042 30.3938L56.5422 29.2568C56.3768 29.1643 56.1903 29.1158 56.0007 29.1158C55.8112 29.1158 55.6247 29.1643 55.4592 29.2568L53.4002 30.3938L53.8172 27.8428C53.8426 27.688 53.8312 27.5294 53.784 27.3799C53.7367 27.2303 53.6549 27.094 53.5452 26.9818L51.7352 25.1328L54.1902 24.7588C54.3534 24.7335 54.508 24.6686 54.6403 24.5697C54.7726 24.4709 54.8787 24.3411 54.9492 24.1918L56.0002 21.9498L57.0512 24.1838C57.1216 24.3371 57.2294 24.4703 57.3646 24.5711C57.4998 24.6719 57.6582 24.7372 57.8252 24.7608L60.2692 25.1328L58.4592 26.9818Z" fill="#262626"/>
<path d="M67.648 33.3152L60.312 34.6262C59.9966 34.6821 59.696 34.8016 59.4283 34.9775C59.1606 35.1534 58.9315 35.3819 58.755 35.6492C58.5844 35.9071 58.4655 36.1958 58.405 36.4992L56.905 36.7662C56.5964 36.821 56.3021 36.9379 56.04 37.1098C55.7779 37.2817 55.5533 37.505 55.38 37.7662C55.1917 38.0518 55.0675 38.3749 55.016 38.7132L54.558 38.8132C54.3735 38.8572 54.1819 38.8621 53.9953 38.8277C53.8088 38.7932 53.6316 38.7202 53.475 38.6132L46.729 34.1522C46.2127 33.812 45.6304 33.5847 45.0202 33.4851C44.41 33.3855 43.7857 33.4158 43.188 33.5742L42.233 33.8342L35.933 32.1172C35.3263 31.9793 34.697 31.9729 34.0876 32.0985C33.4782 32.224 32.9028 32.4786 32.4 32.8452L25.746 37.8402C25.5929 37.9528 25.4183 38.0326 25.233 38.0748C25.0477 38.1169 24.8557 38.1204 24.669 38.0852L24.22 38.0002C24.1554 37.664 24.019 37.3457 23.82 37.0672C23.6349 36.8132 23.4005 36.5992 23.1307 36.438C22.8609 36.2768 22.5614 36.1718 22.25 36.1292L20.75 35.9292C20.6385 35.4636 20.3889 35.0427 20.034 34.7215C19.679 34.4002 19.2353 34.1938 18.761 34.1292L12.277 33.2442C11.9936 33.2045 11.705 33.2262 11.4307 33.3076C11.1564 33.3891 10.9027 33.5285 10.6869 33.7163C10.471 33.9042 10.298 34.1362 10.1795 34.3967C10.061 34.6571 9.99982 34.94 10 35.2262V39.0002C10 39.2654 10.1054 39.5197 10.2929 39.7073C10.4804 39.8948 10.7348 40.0002 11 40.0002C11.2652 40.0002 11.5196 39.8948 11.7071 39.7073C11.8946 39.5197 12 39.2654 12 39.0002V35.2272L18.48 36.1102C18.5319 36.1171 18.5818 36.1347 18.6267 36.1617C18.6716 36.1887 18.7105 36.2246 18.741 36.2672C18.7711 36.3081 18.7924 36.3548 18.8036 36.4044C18.8147 36.4539 18.8156 36.5053 18.806 36.5552L15.065 57.4762C15.0575 57.5235 15.0406 57.5689 15.0154 57.6097C14.9902 57.6505 14.9572 57.6858 14.9182 57.7138C14.8792 57.7417 14.8351 57.7616 14.7884 57.7723C14.7416 57.783 14.6932 57.7843 14.646 57.7762L12 57.4172V43.0002C12 42.7349 11.8946 42.4806 11.7071 42.2931C11.5196 42.1055 11.2652 42.0002 11 42.0002C10.7348 42.0002 10.4804 42.1055 10.2929 42.2931C10.1054 42.4806 10 42.7349 10 43.0002V57.4172C10.0009 57.9006 10.1763 58.3673 10.494 58.7317C10.8117 59.096 11.2502 59.3334 11.729 59.4002L14.373 59.7612C14.4824 59.7762 14.5926 59.7839 14.703 59.7842C15.2597 59.7845 15.7987 59.5884 16.2251 59.2305C16.6515 58.8725 16.938 58.3756 17.034 57.8272L17.375 55.9212L18.867 56.1212C18.9687 56.135 19.0713 56.142 19.174 56.1422C19.6064 56.1407 20.03 56.0198 20.398 55.7926C20.7659 55.5655 21.0639 55.2411 21.259 54.8552L22.127 55.0552L22.098 55.0862C21.483 55.7339 21.1486 56.5982 21.1673 57.4912C21.186 58.3842 21.5564 59.2337 22.198 59.8552C22.8234 60.4637 23.6624 60.8029 24.535 60.8002H24.6H24.611C24.6242 61.6813 24.984 62.5218 25.6125 63.1395C26.2411 63.7572 27.0877 64.1024 27.969 64.1002H28.044C28.0587 64.9797 28.4191 65.818 29.0471 66.4339C29.6751 67.0498 30.5204 67.3937 31.4 67.3912H31.471C31.7126 67.3838 31.9526 67.3503 32.187 67.2912C32.3091 67.8946 32.5941 68.4531 33.011 68.9061C33.4279 69.3591 33.9609 69.6894 34.5521 69.8612C35.1433 70.0329 35.7703 70.0395 36.365 69.8804C36.9598 69.7212 37.4996 69.4023 37.926 68.9582L39.539 67.2792L40.533 68.2312C40.854 68.5392 41.2326 68.781 41.6471 68.9427C42.0616 69.1044 42.5039 69.1828 42.9487 69.1735C43.3935 69.1642 43.8322 69.0674 44.2396 68.8886C44.6469 68.7097 45.0151 68.4523 45.323 68.1312C45.7881 67.6345 46.0969 67.012 46.211 66.3412C46.6548 66.4283 47.1115 66.4253 47.5541 66.3324C47.9967 66.2395 48.4161 66.0585 48.7874 65.8003C49.1587 65.5421 49.4743 65.2119 49.7154 64.8293C49.9565 64.4467 50.1182 64.0195 50.191 63.5732C50.4261 63.617 50.6649 63.6374 50.904 63.6342C51.4078 63.6231 51.9027 63.4995 52.3526 63.2726C52.8025 63.0456 53.196 62.721 53.5043 62.3225C53.8126 61.924 54.028 61.4616 54.1347 60.9691C54.2414 60.4767 54.2367 59.9666 54.121 59.4762C54.8905 59.3157 55.5803 58.893 56.0728 58.2804C56.5652 57.6677 56.8297 56.9031 56.821 56.1172C56.821 56.0602 56.807 56.0062 56.804 55.9502L58.669 55.4412C58.8725 55.8044 59.1689 56.107 59.528 56.3179C59.887 56.5288 60.2956 56.6403 60.712 56.6412C60.8461 56.6406 60.9799 56.6289 61.112 56.6062L62.59 56.3412L63 58.2262C63.1156 58.755 63.4085 59.2285 63.8301 59.568C64.2517 59.9076 64.7767 60.0929 65.318 60.0932C65.4602 60.0928 65.602 60.0801 65.742 60.0552L68.342 59.5912C68.8059 59.5106 69.2266 59.269 69.5299 58.9088C69.8331 58.5487 69.9996 58.093 70 57.6222V35.2842C70 34.9917 69.9359 34.7028 69.8122 34.4378C69.6884 34.1728 69.5081 33.9381 69.2838 33.7504C69.0596 33.5627 68.7969 33.4264 68.5142 33.3512C68.2316 33.276 67.9359 33.2637 67.648 33.3152ZM43.7 35.5002C44.0245 35.4148 44.3633 35.3986 44.6944 35.4527C45.0255 35.5068 45.3416 35.63 45.622 35.8142L52.36 40.2722C52.7404 40.5323 53.1708 40.7102 53.6238 40.7946C54.0769 40.8789 54.5425 40.8679 54.991 40.7622L55.274 40.7012L58.119 53.5132L56.066 54.0732C55.9748 53.9515 55.8745 53.8368 55.766 53.7302L42.852 41.3302C42.3633 40.8626 41.7092 40.6076 41.033 40.6212L39.633 40.6492C39.2972 40.6534 38.9657 40.7249 38.658 40.8596C38.3504 40.9943 38.0729 41.1893 37.842 41.4332L33.872 45.5642C33.6787 45.7671 33.447 45.9296 33.1903 46.0422C32.9337 46.1548 32.6572 46.2153 32.377 46.2202C32.0927 46.2336 31.8088 46.1871 31.5437 46.0838C31.2786 45.9804 31.0381 45.8225 30.838 45.6202C30.5077 45.3056 30.3041 44.8807 30.266 44.4262C30.2315 43.9737 30.3658 43.5245 30.643 43.1652L34.18 38.6882C34.5735 38.1979 35.1095 37.8418 35.714 37.6692L43.7 35.5002ZM19.132 54.1422L17.732 53.9492L20.598 37.9232L21.978 38.1092C22.0237 38.1156 22.0677 38.1312 22.1072 38.1551C22.1468 38.179 22.181 38.2107 22.208 38.2482C22.2648 38.3244 22.2893 38.42 22.276 38.5142L19.517 53.8562C19.5029 53.9447 19.4548 54.0242 19.3828 54.0776C19.3108 54.1311 19.2208 54.1543 19.132 54.1422ZM24.558 58.8002C24.3791 58.8052 24.2009 58.7746 24.0339 58.7102C23.8669 58.6459 23.7143 58.549 23.585 58.4252C23.3261 58.1695 23.1769 57.823 23.169 57.4592C23.1612 57.0954 23.2953 56.7428 23.543 56.4762L25.512 54.4162C25.7665 54.1517 26.1155 53.9991 26.4824 53.9917C26.8494 53.9844 27.2042 54.123 27.469 54.3772C27.7224 54.6364 27.867 54.9827 27.8731 55.3451C27.8793 55.7075 27.7465 56.0585 27.502 56.3262L25.528 58.3822C25.2725 58.6441 24.9238 58.7943 24.558 58.8002ZM28 62.0872C27.8198 62.093 27.6402 62.0632 27.4715 61.9996C27.3029 61.9359 27.1484 61.8396 27.017 61.7162C26.7607 61.4579 26.6137 61.1109 26.6062 60.7472C26.5988 60.3834 26.7315 60.0307 26.977 59.7622L29.607 57.0212C29.8617 56.7572 30.2107 56.6049 30.5774 56.5976C30.9442 56.5903 31.299 56.7285 31.564 56.9822C31.817 57.2416 31.9613 57.588 31.9672 57.9503C31.9732 58.3127 31.8404 58.6636 31.596 58.9312L28.962 61.6772C28.7079 61.9353 28.3622 62.0826 28 62.0872ZM30.446 65.0052C30.1906 64.7486 30.0435 64.4038 30.0349 64.0418C30.0264 63.6799 30.1571 63.3285 30.4 63.0602L33.689 59.6312C33.9454 59.3703 34.2938 59.2201 34.6596 59.2128C35.0253 59.2055 35.3794 59.3417 35.646 59.5922C35.8994 59.8504 36.044 60.1962 36.0498 60.558C36.0555 60.9198 35.9221 61.27 35.677 61.5362L32.387 64.9662C32.1338 65.2287 31.7868 65.3803 31.4221 65.3876C31.0573 65.3949 30.7046 65.2574 30.441 65.0052H30.446ZM36.484 67.5752C36.2308 67.8385 35.8835 67.9906 35.5183 67.9981C35.1531 68.0056 34.7998 67.8679 34.536 67.6152C34.2784 67.3592 34.1303 67.0131 34.123 66.6501C34.1157 66.287 34.2498 65.9352 34.497 65.6692L36.474 63.6092L36.48 63.6142C36.7332 63.3518 37.08 63.2002 37.4445 63.1926C37.8091 63.1849 38.1619 63.3217 38.426 63.5732C38.6807 63.8306 38.827 64.1759 38.8346 64.538C38.8423 64.9001 38.7107 65.2513 38.467 65.5192L36.484 67.5752ZM54.412 57.1092C54.1608 57.3689 53.8175 57.5193 53.4562 57.5277C53.095 57.5362 52.745 57.4019 52.482 57.1542C52.2911 56.971 52.0354 56.871 51.7708 56.8759C51.5063 56.8809 51.2546 56.9905 51.0707 57.1808C50.8868 57.371 50.7858 57.6263 50.7898 57.8909C50.7938 58.1554 50.9025 58.4076 51.092 58.5922L51.792 59.2702C51.9216 59.3958 52.0252 59.5457 52.0969 59.7113C52.1686 59.877 52.2069 60.0551 52.2098 60.2356C52.2126 60.4161 52.1799 60.5953 52.1134 60.7631C52.047 60.931 51.9481 61.0841 51.8225 61.2137C51.6969 61.3433 51.547 61.4469 51.3813 61.5186C51.2157 61.5902 51.0375 61.6286 50.8571 61.6314C50.6766 61.6343 50.4973 61.6015 50.3295 61.5351C50.1617 61.4686 50.0086 61.3698 49.879 61.2442L49.194 60.5882C49.0998 60.4939 48.9878 60.4194 48.8644 60.3691C48.7411 60.3188 48.6089 60.2936 48.4757 60.2951C48.3425 60.2965 48.2109 60.3246 48.0886 60.3776C47.9664 60.4306 47.856 60.5076 47.764 60.6038C47.6719 60.7001 47.5999 60.8138 47.5524 60.9383C47.5049 61.0628 47.4827 61.1955 47.4872 61.3286C47.4917 61.4618 47.5227 61.5927 47.5785 61.7137C47.6343 61.8347 47.7137 61.9433 47.812 62.0332C48.0699 62.2892 48.2182 62.6354 48.2255 62.9988C48.2328 63.3621 48.0985 63.714 47.851 63.9802C47.5963 64.2429 47.248 64.3942 46.8821 64.4012C46.5163 64.4081 46.1625 64.2701 45.898 64.0172L45.198 63.3582C45.0048 63.1764 44.7473 63.0788 44.4821 63.0868C44.2169 63.0949 43.9658 63.208 43.784 63.4012C43.6022 63.5944 43.5046 63.8519 43.5126 64.1171C43.5207 64.3822 43.6338 64.6334 43.827 64.8152C43.9576 64.9382 44.0625 65.0858 44.1358 65.2495C44.2091 65.4132 44.2493 65.5898 44.254 65.7692C44.2555 66.1343 44.117 66.4861 43.867 66.7522C43.6125 67.016 43.2637 67.1681 42.8972 67.175C42.5306 67.1819 42.1763 67.0432 41.912 66.7892L40.656 65.5892C40.8468 64.9895 40.8679 64.3487 40.7172 63.7377C40.5665 63.1267 40.2498 62.5693 39.802 62.1272C39.3008 61.6492 38.664 61.3379 37.979 61.2362C38.0951 60.6814 38.0682 60.1062 37.9008 59.5646C37.7335 59.0231 37.4311 58.533 37.0222 58.1405C36.6133 57.748 36.1112 57.466 35.5633 57.3209C35.0154 57.1758 34.4396 57.1725 33.89 57.3112C33.7654 56.6365 33.4337 56.0175 32.941 55.5402C32.5304 55.1472 32.0273 54.8642 31.4782 54.7174C30.9292 54.5706 30.3519 54.5646 29.8 54.7002C29.6746 54.0253 29.3426 53.4061 28.85 52.9282C28.2014 52.3086 27.3337 51.9712 26.4368 51.9899C25.54 52.0087 24.6872 52.382 24.065 53.0282L23.734 53.3752L21.716 52.9122L24.036 40.0002L24.31 40.0492C24.7659 40.1331 25.2341 40.1226 25.6858 40.0183C26.1375 39.9141 26.563 39.7183 26.936 39.4432L33.587 34.4502C33.8507 34.2561 34.1526 34.1201 34.4726 34.0512C34.7927 33.9823 35.1238 33.9819 35.444 34.0502L38.421 34.8612L35.186 35.7392C34.174 36.0255 33.2761 36.6196 32.617 37.4392L29.076 41.9232C28.489 42.6766 28.2038 43.6218 28.276 44.5742C28.3546 45.517 28.7733 46.3991 29.454 47.0562C29.8463 47.4345 30.3094 47.7318 30.8167 47.9309C31.3241 48.13 31.8657 48.227 32.4107 48.2164C32.9556 48.2058 33.493 48.0878 33.9923 47.8692C34.4915 47.6505 34.9427 47.3355 35.32 46.9422L39.3 42.8072C39.3499 42.756 39.4097 42.7155 39.4757 42.688C39.5417 42.6605 39.6125 42.6466 39.684 42.6472L41.084 42.6192C41.1555 42.6166 41.2267 42.6286 41.2934 42.6543C41.3601 42.6801 41.4209 42.7192 41.472 42.7692L54.4 55.1882C54.528 55.3129 54.63 55.4618 54.7 55.6262C54.77 55.7907 54.8067 55.9674 54.8078 56.1462C54.8089 56.3249 54.7745 56.5021 54.7065 56.6674C54.6386 56.8327 54.5385 56.9829 54.412 57.1092ZM60.764 54.6342C60.6755 54.6481 60.5851 54.628 60.5109 54.5779C60.4366 54.5278 60.3842 54.4514 60.364 54.3642L56.987 39.1642C56.9772 39.1163 56.977 39.067 56.9865 39.0191C56.9959 38.9712 57.0148 38.9257 57.042 38.8852C57.0669 38.8473 57.0991 38.8148 57.1367 38.7896C57.1743 38.7643 57.2165 38.7468 57.261 38.7382L58.639 38.4942L62.158 54.3942L60.764 54.6342ZM68 57.6222L65.4 58.0862C65.3032 58.1043 65.2032 58.0839 65.1212 58.0293C65.0392 57.9748 64.9817 57.8904 64.961 57.7942L60.37 37.0542C60.3582 37.0031 60.3568 36.9502 60.3661 36.8986C60.3754 36.847 60.3951 36.7979 60.424 36.7542C60.4518 36.7118 60.488 36.6756 60.5303 36.6478C60.5726 36.6199 60.6201 36.601 60.67 36.5922L68 35.2822V57.6222Z" fill="#262626"/>
</svg>
