<svg width="18" height="18" viewBox="0 0 18 18" fill="none" xmlns="http://www.w3.org/2000/svg">
<path d="M15.7504 2.98145H14.2879V2.3627C14.2879 2.0252 14.0066 1.71582 13.641 1.71582C13.2754 1.71582 12.9941 1.99707 12.9941 2.3627V2.98145H4.97852V2.3627C4.97852 2.0252 4.69727 1.71582 4.33164 1.71582C3.96602 1.71582 3.68477 1.99707 3.68477 2.3627V2.98145H2.25039C1.29414 2.98145 0.478516 3.76895 0.478516 4.75332V14.5408C0.478516 15.4971 1.26602 16.3127 2.25039 16.3127H15.7504C16.7066 16.3127 17.5223 15.5252 17.5223 14.5408V4.7252C17.5223 3.76895 16.7066 2.98145 15.7504 2.98145ZM1.77227 8.2127H4.16289V10.9971H1.77227V8.2127ZM5.42852 8.2127H8.38164V10.9971H5.42852V8.2127ZM8.38164 12.2627V15.0189H5.42852V12.2627H8.38164ZM9.64727 12.2627H12.6004V15.0189H9.64727V12.2627ZM9.64727 10.9971V8.2127H12.6004V10.9971H9.64727ZM13.8379 8.2127H16.2285V10.9971H13.8379V8.2127ZM2.25039 4.24707H3.71289V4.8377C3.71289 5.1752 3.99414 5.48457 4.35977 5.48457C4.72539 5.48457 5.00664 5.20332 5.00664 4.8377V4.24707H13.0504V4.8377C13.0504 5.1752 13.3316 5.48457 13.6973 5.48457C14.0629 5.48457 14.3441 5.20332 14.3441 4.8377V4.24707H15.7504C16.0316 4.24707 16.2566 4.47207 16.2566 4.75332V6.94707H1.77227V4.75332C1.77227 4.47207 1.96914 4.24707 2.25039 4.24707ZM1.77227 14.5127V12.2346H4.16289V14.9908H2.25039C1.96914 15.0189 1.77227 14.7939 1.77227 14.5127ZM15.7504 15.0189H13.8379V12.2627H16.2285V14.5408C16.2566 14.7939 16.0316 15.0189 15.7504 15.0189Z" fill="#7B808A"/>
</svg>
