<svg width="16" height="16" viewBox="0 0 16 16" fill="none" xmlns="http://www.w3.org/2000/svg">
<path d="M8.2 15.5745C8.15 15.5745 8.125 15.5745 8.075 15.5745C6.925 15.5745 5.675 15.0995 4.9 14.3745C4.075 13.5995 3.625 12.5495 3.625 11.4745V3.72452C3.625 2.64952 4.15 1.67452 5.075 1.04952C5.975 0.42452 7.1 0.27452 8.15 0.64952L8.2 0.67452C8.325 0.72452 8.475 0.74952 8.625 0.84952C9.775 1.44952 10.475 2.52452 10.475 3.74952V10.3745C10.475 11.0495 10.25 11.6745 9.825 12.1745C9.75 12.2745 9.7 12.3245 9.65 12.3495C9.175 12.7745 8.625 12.9995 8 12.9995C7.3 12.9995 6.625 12.6745 6.175 12.1495C5.75 11.6495 5.5 10.9995 5.5 10.3245V4.79952C5.5 4.49952 5.75 4.22452 6.075 4.22452C6.4 4.22452 6.65 4.47452 6.65 4.79952V10.3495C6.65 10.7495 6.8 11.1495 7.05 11.4495C7.275 11.7245 7.65 11.8995 8 11.8995C8.325 11.8995 8.6 11.7745 8.85 11.5495C8.875 11.5245 8.9 11.4995 8.95 11.4495C9.2 11.1495 9.35 10.7745 9.35 10.3745V3.72452C9.35 2.92452 8.9 2.22452 8.1 1.82452L8.075 1.79952C8.025 1.77452 7.975 1.74952 7.875 1.72452L7.8 1.69952C7.075 1.44952 6.325 1.54952 5.7 1.97452C5.075 2.37452 4.75 2.99952 4.75 3.69952V11.4495C4.75 12.1995 5.1 12.9745 5.675 13.5245C6.25 14.0495 7.225 14.4245 8.1 14.4245C8.95 14.4495 9.75 14.1245 10.375 13.5495C10.975 12.9745 11.3 12.2245 11.275 11.4495V5.42452C11.275 5.12452 11.525 4.84952 11.85 4.84952C12.175 4.84952 12.425 5.09952 12.425 5.42452V11.4495C12.45 12.5245 12 13.5745 11.175 14.3745C10.35 15.1245 9.275 15.5745 8.2 15.5745Z" fill="#23252A"/>
</svg>
