<svg width="18" height="18" viewBox="0 0 18 18" fill="none" xmlns="http://www.w3.org/2000/svg">
<path d="M16.2004 14.9348L15.6379 14.0629C15.5254 13.8941 15.4691 13.7254 15.4691 13.5285V7.67852C15.4691 6.01914 14.766 4.47227 13.4723 3.31914C12.4316 2.39102 11.0816 1.80039 9.64727 1.68789V1.12539C9.64727 0.787891 9.36602 0.478516 9.00039 0.478516C8.66289 0.478516 8.35352 0.759766 8.35352 1.12539V1.65977C8.29727 1.65977 8.24102 1.65977 8.18477 1.68789C4.92227 2.05352 2.47539 4.66914 2.47539 7.79102V13.5285C2.44727 13.8098 2.39102 13.9504 2.33477 14.0348L1.80039 14.9348C1.63164 15.216 1.63164 15.5535 1.80039 15.8348C1.96914 16.0879 2.25039 16.2566 2.55977 16.2566H8.38164V16.8754C8.38164 17.2129 8.66289 17.5223 9.02852 17.5223C9.36602 17.5223 9.67539 17.241 9.67539 16.8754V16.2566H15.4691C15.7785 16.2566 16.0598 16.0879 16.2285 15.8348C16.3973 15.5535 16.3973 15.216 16.2004 14.9348ZM3.23477 14.991L3.43164 14.6535C3.60039 14.3723 3.68477 14.0348 3.74102 13.641V7.79102C3.74102 5.31602 5.70977 3.23477 8.32539 2.95352C9.92852 2.78477 11.5035 3.26289 12.6566 4.27539C13.6691 5.17539 14.2316 6.38477 14.2316 7.67852V13.5285C14.2316 13.9504 14.3441 14.3441 14.5973 14.7379L14.766 14.991H3.23477Z" fill="#7B808A"/>
</svg>
