<svg width="20" height="20" viewBox="0 0 20 20" fill="none" xmlns="http://www.w3.org/2000/svg">
<rect width="20" height="20" rx="4" fill="#22D663"/>
<path fill-rule="evenodd" clip-rule="evenodd" d="M14.7068 6.2928C14.8946 6.48034 15 6.73467 15 6.99985C15 7.26503 14.8946 7.51935 14.7068 7.70689L9.70059 12.7072C9.51283 12.8947 9.2582 13 8.9927 13C8.72721 13 8.47258 12.8947 8.28482 12.7072L5.28106 9.70701C5.09868 9.5184 4.99776 9.26578 5.00004 9.00357C5.00232 8.74136 5.10762 8.49053 5.29326 8.30511C5.4789 8.11969 5.73003 8.01451 5.99255 8.01224C6.25508 8.00996 6.50799 8.11076 6.69683 8.29293L8.9927 10.5861L13.2911 6.2928C13.4788 6.10532 13.7335 6 13.999 6C14.2645 6 14.5191 6.10532 14.7068 6.2928Z" fill="white"/>
</svg>
