<svg width="22" height="22" viewBox="0 0 22 22" fill="none" xmlns="http://www.w3.org/2000/svg">
<path fill-rule="evenodd" clip-rule="evenodd" d="M12.8928 10.9955L20.5058 3.38586C21.0335 2.85839 21.0335 2.02257 20.5058 1.4951C19.9782 0.967779 19.1425 0.967779 18.6149 1.4951L11.0016 9.10511L3.38819 1.4951C2.86064 0.967779 2.02489 0.967779 1.49734 1.4951C0.969637 2.02257 0.969637 2.85839 1.49734 3.38586L9.11034 10.9955L1.49734 18.6051C0.969637 19.1326 0.969637 19.9684 1.49734 20.4959C1.71877 20.7172 2.06045 20.8996 2.44276 20.8996C2.75519 20.8996 3.13428 20.7967 3.40752 20.4766L11.0016 12.8859L18.6149 20.4959C18.8364 20.7172 19.178 20.8996 19.5604 20.8996C19.8739 20.8996 20.2545 20.7959 20.528 20.4732C21.0334 19.9447 21.026 19.1251 20.5058 18.6051L12.8928 10.9955Z" fill="#23252A"/>
</svg>
