<svg width="24" height="24" viewBox="0 0 24 24" fill="none" xmlns="http://www.w3.org/2000/svg">
<path d="M9 19L3.78974 20.7368C3.40122 20.8663 3 20.5771 3 20.1675V5.43246C3 5.1742 3.16526 4.94491 3.41026 4.86325L9 3M9 19L15 21M9 19V3M9 3L15 5M15 21L20.5897 19.1368C20.8347 19.0551 21 18.8258 21 18.5675V3.83246C21 3.42292 20.5988 3.13374 20.2103 3.26325L15 5M15 21V5" stroke="black" stroke-width="1.5" stroke-linecap="round" stroke-linejoin="round"/>
<path d="M17.3327 7.66536C17.3327 10.6109 11.9993 15.6654 11.9993 15.6654C11.9993 15.6654 6.66602 10.6109 6.66602 7.66536C6.66602 4.71984 9.05383 2.33203 11.9993 2.33203C14.9449 2.33203 17.3327 4.71984 17.3327 7.66536Z" fill="white" stroke="black" stroke-width="1.5"/>
<path d="M12.0007 8.33333C12.3689 8.33333 12.6673 8.03487 12.6673 7.66667C12.6673 7.29848 12.3689 7 12.0007 7C11.6325 7 11.334 7.29848 11.334 7.66667C11.334 8.03487 11.6325 8.33333 12.0007 8.33333Z" fill="black" stroke="black" stroke-width="1.5" stroke-linecap="round" stroke-linejoin="round"/>
</svg>
