<svg width="60" height="48" viewBox="0 0 60 48" fill="none" xmlns="http://www.w3.org/2000/svg">
<path d="M20.25 15.75L25.409 10.591C26.2877 9.71231 27.7123 9.71231 28.591 10.591L33.75 15.75M32.25 14.25L33.659 12.841C34.5377 11.9623 35.9623 11.9623 36.841 12.841L39.75 15.75M21.75 19.5H38.25C39.0784 19.5 39.75 18.8284 39.75 18V6C39.75 5.17157 39.0784 4.5 38.25 4.5H21.75C20.9216 4.5 20.25 5.17157 20.25 6V18C20.25 18.8284 20.9216 19.5 21.75 19.5ZM32.25 8.25H32.2575V8.2575H32.25V8.25ZM32.625 8.25C32.625 8.45711 32.4571 8.625 32.25 8.625C32.0429 8.625 31.875 8.45711 31.875 8.25C31.875 8.04289 32.0429 7.875 32.25 7.875C32.4571 7.875 32.625 8.04289 32.625 8.25Z" stroke="#7B808A" stroke-width="1.5" stroke-linecap="round" stroke-linejoin="round"/>
<path d="M11.8965 36.5986C11.8838 38.6172 13.0518 40.6738 14.7529 41.499L14.0039 42.4639C12.7661 41.8228 11.8076 40.5469 11.3125 39.0234C10.7983 40.6484 9.80176 42.0068 8.50684 42.6797L7.75781 41.7021C9.50977 40.8643 10.6904 38.6807 10.6904 36.5986V34.6562H11.8965V36.5986ZM16.8096 33.7041V38.2363H18.6377V39.2646H16.8096V45.0791H15.6035V33.7041H16.8096ZM23.3984 36.0781C23.3984 37.5508 24.4902 38.9346 26.2422 39.4932L25.6201 40.4326C24.3125 40.001 23.3223 39.106 22.8145 37.9697C22.3003 39.2075 21.291 40.1851 19.9326 40.6611L19.3105 39.709C21.0752 39.1123 22.167 37.6396 22.1797 36.0781V35.583H19.6279V34.6055H25.8994V35.583H23.3984V36.0781ZM28.6162 33.7168V42.0195H27.4102V33.7168H28.6162ZM28.959 43.8604V44.8379H21.1768V41.2324H22.3955V43.8604H28.959ZM34.4307 35.7861C34.4307 37.3223 35.459 38.8203 37.1729 39.417L36.5127 40.3564C35.2686 39.8804 34.3418 38.9409 33.8594 37.7539C33.3643 39.0742 32.3931 40.1152 31.0537 40.623L30.4062 39.6709C32.1709 39.0361 33.2246 37.4619 33.2373 35.748V34.4023H34.4307V35.7861ZM39.9023 33.7168V42.1973H38.6963V37.2969H36.2969V36.3066H38.6963V33.7168H39.9023ZM40.1562 43.8604V44.8379H32.4756V41.2451H33.6943V43.8604H40.1562ZM46.5674 34.5166V35.4941H43.2793V36.7637H46.4404V37.6904H43.2793V39.0742C44.8027 39.0615 45.8057 39.0044 46.9736 38.7822L47.0879 39.7725C45.7549 40.0264 44.6758 40.0771 42.8604 40.0645H42.124V34.5166H46.5674ZM51.3535 33.7168V40.623H50.2109V37.5889H48.8145V40.5342H47.6846V33.9199H48.8145V36.6113H50.2109V33.7168H51.3535ZM51.3535 41.1689V45.0791H50.1602V42.1465H43.6221V41.1689H51.3535Z" fill="#9DA0A7"/>
</svg>
