<svg width="20" height="20" viewBox="0 0 24 24" fill="none" xmlns="http://www.w3.org/2000/svg">
<g clip-path="url(#clip0_1242_14281)">
<path d="M15.8246 11.1372H8.17461C7.72461 11.1372 7.34961 11.5122 7.34961 11.9997C7.34961 12.4497 7.72461 12.8247 8.21211 12.8247H15.8621C16.3121 12.8247 16.6871 12.4497 16.6871 11.9622C16.6496 11.5122 16.2746 11.1372 15.8246 11.1372Z" fill="black"/>
<path d="M11.9998 0.674805C5.7373 0.674805 0.674805 5.7373 0.674805 11.9998C0.674805 18.2623 5.7748 23.3623 12.0373 23.3623C18.2998 23.3623 23.3998 18.2623 23.3998 11.9998C23.3623 5.7373 18.2623 0.674805 11.9998 0.674805ZM11.9998 21.6748C6.67481 21.6748 2.3623 17.3248 2.3623 11.9998C2.3623 6.67481 6.67481 2.3623 11.9998 2.3623C17.3248 2.3623 21.6748 6.7123 21.6748 12.0373C21.6748 17.3248 17.3248 21.6748 11.9998 21.6748Z" fill="black"/>
</g>
<defs>
<clipPath id="clip0_1242_14281">
<rect width="20" height="20" fill="white"/>
</clipPath>
</defs>
</svg>
