<svg width="20" height="20" viewBox="0 0 20 20" fill="none" xmlns="http://www.w3.org/2000/svg">
<g clip-path="url(#clip0_1120_14)">
<mask id="mask0_1120_14" style="mask-type:luminance" maskUnits="userSpaceOnUse" x="0" y="0" width="20" height="20">
<path d="M20 0H0V20H20V0Z" fill="white"/>
</mask>
<g mask="url(#mask0_1120_14)">
<path d="M0 9.98347C0 4.46281 4.46281 0 9.98347 0C15.5041 0 20 4.46281 20 9.98347C20 15.5041 15.5041 20 9.98347 20C4.46281 20 0 15.5041 0 9.98347Z" fill="#8A99AF"/>
<path d="M10.2893 7.93359H9.76033C9.36364 7.93359 9 8.26417 9 8.69392V14.2476C9 14.6443 9.33058 15.008 9.76033 15.008H10.2893C10.6859 15.008 11.0496 14.6774 11.0496 14.2476V8.69392C11.0496 8.26417 10.6859 7.93359 10.2893 7.93359Z" fill="white"/>
<path d="M10.0578 4.23145C9.48695 4.23145 9 4.7016 9 5.2893C9 5.87699 9.47016 6.34715 10.0578 6.34715C10.6455 6.34715 11.1157 5.87699 11.1157 5.2893C11.1157 4.7016 10.6287 4.23145 10.0578 4.23145Z" fill="white"/>
</g>
</g>
<defs>
<clipPath id="clip0_1120_14">
<rect width="20" height="20" fill="white"/>
</clipPath>
</defs>
</svg>
