<svg width="20" height="20" viewBox="0 0 20 20" fill="none" xmlns="http://www.w3.org/2000/svg">
<path d="M17.1582 5.1875L12.8457 0.9375C12.5957 0.6875 12.252 0.5625 11.9082 0.5625H4.4082C3.3457 0.5625 2.43945 1.4375 2.43945 2.53125V17.5312C2.43945 18.5938 3.31445 19.5 4.4082 19.5H15.5645C16.627 19.5 17.5332 18.625 17.5332 17.5312V6.125C17.5332 5.78125 17.4082 5.4375 17.1582 5.1875ZM12.877 2.9375L15.2207 5.25H12.877V2.9375ZM15.5957 18.0625H4.4082C4.0957 18.0625 3.8457 17.8125 3.8457 17.5V2.5C3.8457 2.1875 4.0957 1.9375 4.4082 1.9375H11.4707V5.9375C11.4707 6.3125 11.7832 6.65625 12.1895 6.65625H16.1582V17.5C16.127 17.8125 15.877 18.0625 15.5957 18.0625Z" fill="#23252A"/>
<path d="M12.1582 9.09375H6.75195C6.37695 9.09375 6.0332 9.40625 6.0332 9.8125C6.0332 10.2187 6.3457 10.5313 6.75195 10.5313H12.1582C12.5332 10.5313 12.877 10.2187 12.877 9.8125C12.877 9.40625 12.5645 9.09375 12.1582 9.09375Z" fill="#23252A"/>
<path d="M12.1582 12.5312H6.75195C6.37695 12.5312 6.0332 12.8438 6.0332 13.25C6.0332 13.6563 6.3457 13.9688 6.75195 13.9688H12.1582C12.5332 13.9688 12.877 13.6563 12.877 13.25C12.877 12.8438 12.5645 12.5312 12.1582 12.5312Z" fill="#23252A"/>
</svg>
