<svg width="40" height="40" viewBox="0 0 40 40" fill="none" xmlns="http://www.w3.org/2000/svg">
<path d="M7 7.25C7 4.90279 8.9401 3 11.3333 3H28.6667C31.0599 3 33 4.90279 33 7.25V32.75C33 35.0972 31.0599 37 28.6667 37H11.3333C8.9401 37 7 35.0972 7 32.75V7.25Z" fill="#8A99AF"/>
<path d="M11.5039 9.25C11.5039 8.55964 12.0636 8 12.7539 8H26.7539C27.4443 8 28.0039 8.55964 28.0039 9.25C28.0039 9.94036 27.4443 10.5 26.7539 10.5H12.7539C12.0636 10.5 11.5039 9.94036 11.5039 9.25Z" fill="white"/>
<path d="M11.5039 14.25C11.5039 13.5596 12.0636 13 12.7539 13H26.7539C27.4443 13 28.0039 13.5596 28.0039 14.25C28.0039 14.9404 27.4443 15.5 26.7539 15.5H12.7539C12.0636 15.5 11.5039 14.9404 11.5039 14.25Z" fill="white"/>
<path d="M11.5039 18.9091C11.5039 18.407 11.9109 18 12.413 18H15.1403C15.6423 18 16.0494 18.407 16.0494 18.9091C16.0494 19.4112 15.6423 19.8182 15.1403 19.8182H12.413C11.9109 19.8182 11.5039 19.4112 11.5039 18.9091Z" fill="white"/>
</svg>
