<svg width="60" height="60" viewBox="0 0 60 60" fill="none" xmlns="http://www.w3.org/2000/svg">
<rect width="60" height="60" rx="30" fill="#E8F7FF"/>
<path d="M17.1992 30.0002C17.1992 22.9309 22.93 17.2002 29.9992 17.2002C37.0685 17.2002 42.7992 22.9309 42.7992 30.0002C42.7992 37.0694 37.0685 42.8002 29.9992 42.8002C22.93 42.8002 17.1992 37.0694 17.1992 30.0002Z" fill="#136BB9"/>
<path fill-rule="evenodd" clip-rule="evenodd" d="M28.6104 35.0064C28.6104 35.6542 28.2363 36.0277 27.605 36.0277C26.9815 36.0277 26.5996 35.6542 26.5996 35.0064V25.9217C26.5996 25.2815 26.9815 24.9004 27.605 24.9004H30.9719C33.2087 24.9004 34.7596 26.3866 34.7596 28.5815C34.7596 30.7765 33.1619 32.2627 30.8861 32.2627H28.6104V35.0064ZM28.6104 26.5085V30.6774H30.4341C31.8759 30.6774 32.7177 29.9153 32.7177 28.5815C32.7177 27.263 31.8837 26.5085 30.4419 26.5085H28.6104Z" fill="white"/>
</svg>
