<svg width="80" height="80" viewBox="0 0 80 80" fill="none" xmlns="http://www.w3.org/2000/svg">
<rect width="80" height="80" rx="8" fill="white"/>
<path d="M32.2625 69.8072V65.3827H38.8919V63.1801H43.2856V58.7653H41.0888V56.5628H34.4594C34.4594 55.835 34.4594 55.0976 34.4594 54.3602H38.8532V52.148H36.6563V49.9551H34.4497V47.7429H38.8725V49.9357H41.0597V47.7429H38.8628C38.8628 47.0055 38.8628 46.268 38.8628 45.5306H47.6988V47.7429H45.5019V52.1383H47.6891V47.7332H49.915V43.3184H52.0925V41.1061H45.4728V38.923H43.276V43.3281H38.8628V41.1158H41.0597V38.9133H38.8628V36.6913H43.2663V32.2862H41.0597V30.0934H38.8628V32.2668H34.4691V30.074H36.666V27.8714H43.2953V30.074H45.5116V32.2862H49.9344V34.4888H45.5309V36.6913H49.9344V38.9133H54.3572V41.1255H58.7413V43.3281H54.3475V49.9454H52.1313V52.148H49.9344V56.5725H45.5116V54.3505H43.3147V52.1674H41.1178V54.3408C41.863 54.3408 42.5888 54.3408 43.3244 54.3408V56.5628H45.5212V58.7847H47.7085V60.9873H45.5309V63.1898H49.9344V65.3827H52.1216V63.1995H49.9247C49.9247 60.9873 49.9247 58.775 49.9247 56.5725H52.1313C52.1313 56.2135 52.1313 55.8836 52.1313 55.5537C52.1313 54.4184 52.1216 53.2832 52.1216 52.148H54.3378V49.9454H58.7606V52.1383H60.9478V49.9454H58.7509V47.7235H60.9769V45.5306H63.1738V47.7429H65.39V49.9454H67.5965V52.148H69.7934V54.3602H65.3997V58.775H63.1931V60.9776H65.3706V63.1801H60.9865V65.3924H63.1641V67.5949H65.3706V65.4215H69.8031V63.1995H72V69.8072H69.8225V67.624H67.6159V69.8072H63.2028V72H49.944V69.8072H56.5637V67.5949H58.7606V63.1995H56.5734V67.6046H49.9537V69.8072H47.7472V67.6046H45.5503V65.4021H43.334V69.7974H41.1371V72H38.9306V67.6143H34.5078V69.8072H32.2625ZM60.9478 54.3699H54.3572V60.9679H60.9478V54.3699Z" fill="#5B5D5D"/>
<path d="M14.6197 45.5209C14.6197 46.2583 14.6197 46.9958 14.6197 47.7332H12.4228V52.1383H16.8262V49.9454H19.0231V54.3408H8.02903V38.8939H10.2162V41.0867H12.4034V38.8939H10.2066V36.6913H8.01935V34.4791H10.1969V32.2668H12.4131V36.6622H14.6294V34.4694H16.8359V30.0546H19.0425V32.2571H21.2587C21.2587 32.9848 21.2587 33.7222 21.2587 34.4597H19.0328V36.6719H16.8359V38.8842H14.6487V41.0673H19.0618V38.8745H25.6815V41.0964H21.2878V43.3087H25.6622V45.5112H21.2587V47.7138H19.0522V43.3184H16.8553V45.5209H14.6294V43.3281H12.4422V45.5112H14.639L14.6197 45.5209Z" fill="#5B5D5D"/>
<path d="M8 8.0097H23.4169V23.4275H8V8.0097ZM21.22 10.2219H10.2162V21.2347H21.22V10.2219Z" fill="#5B5D5D"/>
<path d="M56.5637 8.0097H71.9807V23.4275H56.5637V8.0097ZM58.7703 21.2153H69.7741V10.2025H58.7703V21.2153Z" fill="#5B5D5D"/>
<path d="M8 56.5822H23.4169V72H8V56.5822ZM21.2103 58.7944H10.2066V69.8072H21.2103V58.7944Z" fill="#5B5D5D"/>
<path d="M30.0559 14.6173H32.2528V10.2025H25.6719V8H34.4691V10.1734H36.6756V8H41.0791V10.1831H38.9112V12.3857H43.305V14.6076H38.8822V19.0321H34.4691V21.2347C33.7335 21.2347 32.998 21.2347 32.2528 21.2347V19.0224H30.0463V14.6076L30.0559 14.6173ZM36.666 12.4245H34.4884V16.8102H36.666V12.4245Z" fill="#5B5D5D"/>
<path d="M52.1216 27.8617V30.074L52.1313 30.0643H45.5019L45.5116 30.074V27.8617H43.2953H43.305V25.6689H36.6756V27.8617H36.6853H34.4788V21.2347L34.4691 21.2444H36.695V23.4372H38.8919V21.2638H41.1081V23.4275H43.305V14.6076L43.2953 14.6173H47.7085V16.8296L47.7181 16.8199H45.5212V25.6592H49.9247L49.915 25.6495V27.8617H52.1313H52.1216Z" fill="#5B5D5D"/>
<path d="M47.7085 16.8296H49.915V14.627H52.1119V12.4148H45.5309V8.0097H49.9247V10.1928H54.3281V27.8617H52.1409V25.6592H49.9247C49.9247 24.9315 49.9247 24.1941 49.9247 23.4469H52.1216V19.0127H47.7278V16.8102L47.7085 16.8296Z" fill="#5B5D5D"/>
<path d="M60.9575 36.701H69.7741V32.2959H71.9807V43.299H69.7934V38.9133H67.5869V43.3087H65.3706V43.3184V38.923H63.1544V41.0867H60.9575V36.6913V36.701Z" fill="#5B5D5D"/>
<path d="M58.7509 27.8714H63.1447V30.0643H60.9672V32.2765H58.7606V34.4791H60.9478V36.701H58.7219V38.8939H56.525V32.2959H54.3088V34.4888H52.1022C52.1022 33.0139 52.1022 31.5391 52.1022 30.0643H58.7316V27.852L58.7509 27.8714Z" fill="#5B5D5D"/>
<path d="M27.8591 65.3924H25.6622V60.9776H32.2528V58.7847H27.8591V56.5628H27.8494H34.4788H34.4691V58.7847H36.666V63.1898H27.8494V65.4021L27.8591 65.3924Z" fill="#5B5D5D"/>
<path d="M23.4363 27.8714H27.8591V30.074H30.0753V32.2959H27.8687V34.4985H23.4459C23.4459 33.7611 23.4459 33.0237 23.4459 32.2862H25.6428V30.074H23.4459C23.4459 29.3463 23.4459 28.6089 23.4459 27.8617L23.4363 27.8714Z" fill="#5B5D5D"/>
<path d="M27.8591 56.5628H25.6525V54.3602H21.249V52.1577H23.4459V49.9357C24.1815 49.9357 24.9267 49.9357 25.6622 49.9357V52.148H27.8687C27.8687 53.6228 27.8687 55.0976 27.8687 56.5725L27.8591 56.5628Z" fill="#5B5D5D"/>
<path d="M27.8591 27.8714V25.6689H25.6622V21.2444H27.8591V23.4469H30.0753V27.8714C29.3398 27.8714 28.5946 27.8714 27.8591 27.8714Z" fill="#5B5D5D"/>
<path d="M32.2625 69.8072V72H25.6622V67.6046H27.8591L27.8494 67.5949V69.8169H32.2722L32.2625 69.8072Z" fill="#5B5D5D"/>
<path d="M14.6197 30.074V25.6689H19.0134V27.852H16.8166V30.074L16.8262 30.0643H14.61L14.6197 30.074Z" fill="#5B5D5D"/>
<path d="M65.3803 32.2765V27.8714H69.7838V27.8617V30.0643H67.5869V32.2765H65.3706H65.3803Z" fill="#5B5D5D"/>
<path d="M12.4034 30.0643H10.2066V27.8714H8.00967V25.6689H12.4034V30.074V30.0643Z" fill="#5B5D5D"/>
<path d="M69.7934 63.1801H67.5965V58.7847H69.7838V63.1898L69.7934 63.1801Z" fill="#5B5D5D"/>
<path d="M65.3706 45.5306H69.7838V47.7332C68.3127 47.7332 66.8417 47.7332 65.361 47.7332V45.5209L65.3706 45.5306Z" fill="#5B5D5D"/>
<path d="M65.3706 43.3087V45.5306V45.5209H63.1641V45.5306V43.3184H65.3706V43.3087Z" fill="#5B5D5D"/>
<path d="M14.61 47.7332H16.8166V49.9454L16.8262 49.9357H14.61V47.7235V47.7332Z" fill="#5B5D5D"/>
<path d="M23.4459 49.9357H21.2394V47.7235L21.2297 47.7332H23.4363V49.9454L23.4459 49.9357Z" fill="#5B5D5D"/>
<path d="M69.7838 47.7332H71.971V49.9163H69.7838V47.7235V47.7332Z" fill="#5B5D5D"/>
<path d="M65.3706 32.2765V34.4694H63.1834V32.2765H65.3803H65.3706Z" fill="#5B5D5D"/>
<path d="M21.2394 32.2862V30.074H23.4459L23.4363 30.0643V32.2862L23.4459 32.2765H21.2297L21.2394 32.2862Z" fill="#5B5D5D"/>
<path d="M12.4034 30.074C13.139 30.074 13.8842 30.074 14.6197 30.074V32.2765H12.4131C12.4131 31.5488 12.4131 30.8114 12.4131 30.0643" fill="#5B5D5D"/>
<path d="M69.7838 27.8714V25.6786H71.971V27.8617H69.7741" fill="#5B5D5D"/>
<path d="M58.7509 27.8617H56.5637V25.6689H58.7509V27.8714V27.8617Z" fill="#5B5D5D"/>
<path d="M23.4459 27.8617H21.249V25.6786H23.4363V27.8714L23.4459 27.8617Z" fill="#5B5D5D"/>
<path d="M27.8591 67.6046V65.3924L27.8494 65.4021H30.0366V67.5949H27.8494L27.8591 67.6046Z" fill="#5B5D5D"/>
<path d="M27.8591 21.2444V19.0321H30.0656C30.0656 19.7599 30.0656 20.4973 30.0656 21.2347C29.3301 21.2347 28.5849 21.2347 27.8494 21.2347L27.8591 21.2444Z" fill="#5B5D5D"/>
<path d="M30.0656 14.6173H27.8687V12.4342H30.0559V14.627L30.0656 14.6173Z" fill="#5B5D5D"/>
<path d="M34.4691 69.8169H36.6563V72H34.4691V69.8072" fill="#5B5D5D"/>
<path d="M25.6428 38.9036V36.701H27.8494V34.4791H32.2528V38.9036H25.6428Z" fill="#5B5D5D"/>
<path d="M34.4788 47.7332H32.2625C32.2625 46.2583 32.2625 44.7835 32.2625 43.3087H34.4594V41.0964H36.6756V43.299H38.8822V45.5112H34.4691V47.7138L34.4788 47.7332Z" fill="#5B5D5D"/>
<path d="M32.2722 43.3184H27.8687V41.1255H32.2625V43.3184H32.2722Z" fill="#5B5D5D"/>
<path d="M38.8919 41.1158H36.6756C36.6756 40.3784 36.6756 39.641 36.6756 38.9036C37.4112 38.9036 38.1564 38.9036 38.8919 38.9036V41.1158Z" fill="#5B5D5D"/>
<path d="M36.6853 38.8939H34.4981V36.7107H36.6756V38.9036L36.6853 38.8939Z" fill="#5B5D5D"/>
<path d="M27.8591 47.7526H25.6428V49.9454H27.8591V47.7526Z" fill="#5B5D5D"/>
<path d="M32.2722 47.7332C32.2722 48.4706 32.2722 49.208 32.2722 49.9454H30.0559V47.7332H32.2625H32.2722Z" fill="#5B5D5D"/>
<path d="M27.8494 52.148V49.9357C28.5849 49.9357 29.3301 49.9357 30.0656 49.9357V52.1383C29.3301 52.1383 28.5849 52.1383 27.8494 52.1383" fill="#5B5D5D"/>
<path d="M32.2528 27.8617H31.0141V30.074H32.2528V27.8617Z" fill="#5B5D5D"/>
<path d="M32.2722 21.2347H30.0559V23.4469H32.2722V21.2347Z" fill="#5B5D5D"/>
<path d="M52.1313 34.4791H49.915V36.6913H52.1313V34.4791Z" fill="#5B5D5D"/>
<path d="M41.0888 58.7653V60.9582H38.9016V58.775H41.0984L41.0888 58.7653Z" fill="#5B5D5D"/>
<path d="M58.7413 56.5822H56.5541V58.7556H58.7413V56.5822Z" fill="#5B5D5D"/>
<path d="M32.2625 49.9454C32.998 49.9454 33.7432 49.9454 34.4788 49.9454V54.3699H30.0656V52.1577H32.2819V49.9454H32.2625Z" fill="#5B5D5D"/>
<path d="M23.4459 34.4791H21.2297V36.6719H23.4459V34.4791Z" fill="#5B5D5D"/>
<path d="M19.0134 12.4245H12.4228V19.0127H19.0134V12.4245Z" fill="#5B5D5D"/>
<path d="M67.5675 12.4245H60.9769V19.0127H67.5675V12.4245Z" fill="#5B5D5D"/>
<path d="M19.0134 60.997H12.4228V67.5852H19.0134V60.997Z" fill="#5B5D5D"/>
<path d="M49.9247 23.4469H47.7375V21.2541H49.915V23.4566L49.9247 23.4469Z" fill="#5B5D5D"/>
</svg>
