<svg width="24" height="24" viewBox="0 0 24 24" fill="none" xmlns="http://www.w3.org/2000/svg">
<path d="M1.8999 11.9999C1.8999 6.42183 6.42183 1.8999 11.9999 1.8999V1.8999C17.578 1.8999 22.0999 6.42183 22.0999 11.9999V11.9999C22.0999 17.578 17.578 22.0999 11.9999 22.0999V22.0999C6.42183 22.0999 1.8999 17.578 1.8999 11.9999V11.9999Z" fill="#14B6F7"/>
<path fill-rule="evenodd" clip-rule="evenodd" d="M10.904 15.9499C10.904 16.461 10.6088 16.7557 10.1107 16.7557C9.61872 16.7557 9.31738 16.461 9.31738 15.9499V8.78143C9.31738 8.27627 9.61872 7.97559 10.1107 7.97559H12.7674C14.5323 7.97559 15.7561 9.14827 15.7561 10.8802C15.7561 12.6122 14.4954 13.7849 12.6997 13.7849H10.904V15.9499ZM10.904 9.24535V12.5349H12.343C13.4807 12.5349 14.1449 11.9335 14.1449 10.8811C14.1449 9.84072 13.4868 9.24535 12.3491 9.24535H10.904Z" fill="white"/>
</svg>
