<svg width="24" height="24" viewBox="0 0 24 24" fill="none" xmlns="http://www.w3.org/2000/svg">
<path d="M11.4328 2.87679C11.6426 2.3744 12.3574 2.3744 12.5672 2.87679L14.8891 8.43536C14.9775 8.64715 15.1776 8.79186 15.4072 8.81019L21.4339 9.29128C21.9786 9.33477 22.1995 10.0116 21.7845 10.3656L17.1928 14.2821C17.0178 14.4313 16.9414 14.6654 16.9948 14.8886L18.3977 20.7445C18.5245 21.2737 17.9462 21.692 17.4799 21.4084L12.3202 18.2704C12.1236 18.1508 11.8764 18.1508 11.6798 18.2704L6.52009 21.4084C6.05376 21.692 5.47552 21.2737 5.60231 20.7445L7.00515 14.8886C7.0586 14.6654 6.9822 14.4313 6.80724 14.2821L2.21554 10.3656C1.80054 10.0116 2.02141 9.33477 2.5661 9.29128L8.59279 8.81019C8.82242 8.79186 9.02245 8.64715 9.11092 8.43536L11.4328 2.87679Z" fill="#FFE500" stroke="#FFE500" stroke-width="1.5" stroke-linecap="round" stroke-linejoin="round"/>
</svg>
