<svg width="60" height="60" viewBox="0 0 60 60" fill="none" xmlns="http://www.w3.org/2000/svg">
<rect width="60" height="60" rx="30" fill="#E8F7FF"/>
<path fill-rule="evenodd" clip-rule="evenodd" d="M26.2664 17.2002C20.0808 17.2002 15.0664 22.2146 15.0664 28.4002C15.0664 34.5858 20.0808 39.6002 26.2664 39.6002H26.4288L25.7061 41.7872C25.381 42.7711 26.5082 43.594 27.3463 42.9845L31.9997 39.6002H33.7331C39.9187 39.6002 44.9331 34.5858 44.9331 28.4002C44.9331 22.2146 39.9187 17.2002 33.7331 17.2002H26.2664Z" fill="#39B76B"/>
<path fill-rule="evenodd" clip-rule="evenodd" d="M31.9466 23.6006L31.7029 30.1818H29.2112L28.9674 23.6006H31.9466ZM31.5844 33.2998C31.3203 33.5278 30.9445 33.6417 30.457 33.6417C29.9695 33.6417 29.5937 33.5278 29.3297 33.2998C29.0656 33.0719 28.9336 32.7457 28.9336 32.3214C28.9336 31.8926 29.0656 31.5642 29.3297 31.3363C29.5937 31.1083 29.9695 30.9943 30.457 30.9943C30.9445 30.9943 31.3203 31.1083 31.5844 31.3363C31.8484 31.5642 31.9805 31.8926 31.9805 32.3214C31.9805 32.7457 31.8484 33.0719 31.5844 33.2998Z" fill="white"/>
</svg>
