<svg width="24" height="24" viewBox="0 0 24 24" fill="none" xmlns="http://www.w3.org/2000/svg">
<path d="M11.4 14.4C11.55 14.55 11.775 14.625 12 14.625C12.225 14.625 12.4125 14.55 12.6 14.4L21.225 5.92505C21.5625 5.58755 21.5625 5.06255 21.225 4.72505C20.8875 4.38755 20.3625 4.38755 20.025 4.72505L12 12.6L3.97498 4.72505C3.63748 4.38755 3.11248 4.38755 2.77498 4.72505C2.43748 5.06255 2.43748 5.58755 2.77498 5.92505L11.4 14.4Z" fill="black"/>
<path d="M20.025 9.60005L12 17.475L3.97498 9.60005C3.63748 9.26255 3.11248 9.26255 2.77498 9.60005C2.43748 9.93755 2.43748 10.4625 2.77498 10.8L11.4 19.275C11.55 19.425 11.775 19.5 12 19.5C12.225 19.5 12.4125 19.425 12.6 19.275L21.225 10.8C21.5625 10.4625 21.5625 9.93755 21.225 9.60005C20.8875 9.26255 20.3625 9.26255 20.025 9.60005Z" fill="black"/>
</svg>
