<svg width="20" height="20" viewBox="0 0 24 24" fill="none" xmlns="http://www.w3.org/2000/svg">
<g clip-path="url(#clip0_1242_14273)">
<path d="M15.8246 11.1371H12.8246V8.17461C12.8246 7.72461 12.4496 7.34961 11.9621 7.34961C11.5121 7.34961 11.1371 7.72461 11.1371 8.21211V11.1746H8.17461C7.72461 11.1746 7.34961 11.5496 7.34961 12.0371C7.34961 12.4871 7.72461 12.8621 8.21211 12.8621H11.1746V15.8246C11.1746 16.2746 11.5496 16.6496 12.0371 16.6496C12.4871 16.6496 12.8621 16.2746 12.8621 15.7871V12.8246H15.8246C16.2746 12.8246 16.6496 12.4496 16.6496 11.9621C16.6496 11.5121 16.2746 11.1371 15.8246 11.1371Z" fill="black"/>
<path d="M11.9998 0.674805C5.7373 0.674805 0.674805 5.7373 0.674805 11.9998C0.674805 18.2623 5.7748 23.3623 12.0373 23.3623C18.2998 23.3623 23.3998 18.2623 23.3998 11.9998C23.3623 5.7373 18.2623 0.674805 11.9998 0.674805ZM11.9998 21.6748C6.67481 21.6748 2.3623 17.3248 2.3623 11.9998C2.3623 6.67481 6.67481 2.3623 11.9998 2.3623C17.3248 2.3623 21.6748 6.67481 21.6748 11.9998C21.6748 17.3248 17.3248 21.6748 11.9998 21.6748Z" fill="black"/>
</g>
<defs>
<clipPath id="clip0_1242_14273">
<rect width="20" height="20" fill="white"/>
</clipPath>
</defs>
</svg>
