<svg width="125" height="34" viewBox="0 0 166 45" fill="none" xmlns="http://www.w3.org/2000/svg">
<g clip-path="url(#clip0_1270_901)">
<path d="M16.8991 0.0362729C7.58476 0.648273 0 9.14427 0 18.4683V40.0503C0 42.4443 1.71153 44.6043 4.08965 44.9463C7.04428 45.3783 9.58455 43.0923 9.58455 40.2123V18.3423C9.58455 13.9503 12.8094 10.1163 17.1873 9.64827C20.3942 9.30627 23.2768 10.7283 25.0063 13.0683C26.1954 14.6883 26.8439 16.7223 26.6458 18.9183C26.2494 23.3643 22.3759 26.6763 17.926 26.6763H13.2598V36.2523H17.7819C27.1142 36.2523 35.5997 28.6743 36.2123 19.3683C36.9509 8.37027 27.8889 -0.683727 16.8991 0.0362729Z" fill="#22D663"/>
<path d="M22.9348 18.9363C23.4753 15.6063 20.6467 12.7623 17.3138 13.3203C15.296 13.6443 13.6565 15.2823 13.3322 17.2983C12.7917 20.6283 15.6203 23.4723 18.9532 22.9143C20.971 22.5903 22.5925 20.9523 22.9348 18.9363Z" fill="#14B6F7"/>
<path d="M47.202 16.848C47.202 16.02 47.9947 15.66 48.8595 15.66C49.7242 15.66 50.5169 16.02 50.5169 16.848V24.894H53.3094V16.848C53.3094 16.02 54.0841 15.66 54.9669 15.66C55.7956 15.66 56.6244 16.02 56.6244 16.848V24.678C57.1288 24.642 57.8314 24.516 58.1197 24.462C58.498 24.39 58.6602 24.354 58.7503 24.354C59.525 24.354 59.9573 24.966 59.9573 25.902C59.9573 26.568 59.7231 27 59.1646 27.18C57.4531 27.702 54.1742 27.936 50.9853 27.936H45.6706C44.95 27.936 44.5176 27.27 44.5176 26.406C44.5176 25.542 44.95 24.912 45.6706 24.912H47.22V16.866L47.202 16.848ZM45.8688 14.472C45.1301 14.472 44.7518 13.752 44.7518 12.942C44.7518 12.132 45.1301 11.412 45.8688 11.412H57.9576C58.7322 11.412 59.0746 12.168 59.0746 12.942C59.0746 13.716 58.7322 14.472 57.9576 14.472H45.8688ZM61.0383 10.494C61.0383 9.62998 61.7589 9.12598 62.6958 9.12598C63.6867 9.12598 64.4073 9.62998 64.4073 10.494V18.18H67.2899C68.1186 18.18 68.4069 18.81 68.4069 19.674C68.4069 20.538 68.1186 21.204 67.2899 21.204H64.4073V33.516C64.4073 34.506 63.6867 34.956 62.6958 34.956C61.7049 34.956 61.0383 34.506 61.0383 33.516V10.494Z" fill="#14B6F7"/>
<path d="M72.0279 13.5717C71.3073 13.5717 70.9109 12.9597 70.9109 12.0777C70.9109 11.1957 71.3073 10.6017 72.0279 10.6017H80.2612C81.9367 10.6017 82.4952 11.1777 82.4952 12.6897C82.4952 19.0617 78.0453 23.3457 71.9558 25.0377C71.7396 25.0917 71.5595 25.1277 71.3973 25.1277C70.6587 25.1277 69.9561 24.4437 69.9561 23.3277C69.9561 22.7517 70.2803 22.2477 70.8388 22.0677C73.3431 21.3477 75.4509 20.2137 76.8742 18.7377H71.1631C70.3884 18.7377 70.1002 18.0357 70.1002 17.2977C70.1002 16.5597 70.4245 15.9117 71.1631 15.9117H78.5677C78.7299 15.3537 78.838 14.7777 78.838 14.1297C78.838 13.6797 78.6218 13.5717 78.2074 13.5717H72.0099H72.0279ZM81.9007 24.7497C87.4136 24.7497 90.3863 26.7477 90.3863 30.1857C90.3863 33.6237 87.4316 35.5677 81.9007 35.5677C76.3698 35.5677 73.4151 33.5697 73.4151 30.1857C73.4151 26.8017 76.3518 24.7497 81.9007 24.7497ZM81.9007 32.7417C85.1796 32.7417 86.9092 31.7517 86.9092 30.1857C86.9092 28.5477 85.1796 27.5757 81.9007 27.5757C78.6218 27.5757 76.9102 28.5477 76.9102 30.1857C76.9102 31.8237 78.6218 32.7417 81.9007 32.7417ZM86.8551 10.4757C86.8551 9.64769 87.6478 9.17969 88.5666 9.17969C89.4855 9.17969 90.2421 9.64769 90.2421 10.4757V23.3817C90.2421 24.4077 89.5215 24.8217 88.5666 24.8217C87.6118 24.8217 86.8551 24.4077 86.8551 23.3817V10.4757Z" fill="#14B6F7"/>
<path d="M94.8002 31.3916C94.1155 31.3916 93.7012 30.7256 93.7012 29.8436C93.7012 29.0156 94.0975 28.3496 94.8002 28.3496H115.789C116.51 28.3496 116.888 29.0156 116.888 29.8436C116.888 30.7256 116.51 31.3916 115.789 31.3916H94.8002ZM97.0341 14.0576C96.2054 14.0576 95.9172 13.2836 95.9172 12.5096C95.9172 11.7356 96.2595 11.0156 97.0341 11.0156H113.465C114.203 11.0156 114.618 11.7536 114.618 12.5096C114.618 13.2656 114.294 14.0576 113.465 14.0576H97.0341ZM99.6645 16.4156C99.6645 15.5336 100.439 15.2276 101.322 15.2276C102.205 15.2276 102.979 15.5336 102.979 16.4156V21.3836H107.592V16.3976C107.592 15.5336 108.384 15.2276 109.249 15.2276C110.114 15.2276 110.907 15.5336 110.907 16.3976V21.3836H113.303C114.059 21.3836 114.456 22.1036 114.456 22.8596C114.456 23.6156 114.113 24.3896 113.303 24.3896H97.2503C96.4576 24.3896 96.1333 23.6336 96.1333 22.8596C96.1333 22.0856 96.5117 21.3836 97.2503 21.3836H99.6825V16.4156H99.6645Z" fill="#22D663"/>
<path d="M120.275 10.9077H126.058C127.788 10.9077 128.346 11.5557 128.346 13.1757V16.6137C128.346 18.1077 127.896 18.9897 126.22 18.9897H123.013C122.509 18.9897 122.401 19.0977 122.401 19.5657V21.0417C122.401 21.7077 122.455 21.7617 123.085 21.7977C124.491 21.8877 127.085 21.6537 128.364 21.3297C128.977 21.1677 129.643 21.5277 129.769 22.3557C129.932 23.2737 129.607 23.9577 129.031 24.1377C127.301 24.6417 123.698 24.9117 121.482 24.7497C119.698 24.6057 119.086 24.1197 119.086 22.1397V18.5577C119.086 16.9557 119.626 16.3437 121.266 16.3437H124.419C124.959 16.3437 125.031 16.2357 125.031 15.7677V14.3457C125.031 13.8957 124.959 13.8237 124.401 13.8237H120.257C119.482 13.8237 119.05 13.1217 119.05 12.4017C119.05 11.6277 119.482 10.9077 120.257 10.9077M122.959 27.6657C122.959 26.8017 123.788 26.3697 124.725 26.3697C125.662 26.3697 126.49 26.8197 126.49 27.6657V31.5537C126.49 32.0757 126.563 32.1657 127.103 32.1657H139.678C140.453 32.1657 140.849 32.7957 140.849 33.6417C140.849 34.4877 140.453 35.1717 139.678 35.1717H125.86C123.914 35.1717 122.959 34.7757 122.959 32.6517V27.6837V27.6657ZM131.823 10.9077C131.823 10.0977 132.526 9.66569 133.427 9.66569C134.381 9.66569 135.084 10.1157 135.084 10.9077V26.9097C135.084 27.8637 134.418 28.2777 133.427 28.2777C132.49 28.2777 131.823 27.8637 131.823 26.9097V19.0077H130.148C129.337 19.0077 128.977 18.3777 128.977 17.4597C128.977 16.4877 129.355 15.8757 130.148 15.8757H131.823V10.9077ZM136.958 10.4217C136.958 9.64769 137.678 9.17969 138.561 9.17969C139.552 9.17969 140.237 9.64769 140.237 10.4217V27.5037C140.237 28.4757 139.57 28.8897 138.561 28.8897C137.66 28.8897 136.958 28.4757 136.958 27.5037V10.4217Z" fill="#22D663"/>
<path d="M143.93 31.3563C143.209 31.3563 142.831 30.7263 142.831 29.8623C142.831 28.9983 143.209 28.3683 143.93 28.3683H164.901C165.639 28.3683 166.018 28.9983 166.018 29.8623C166.018 30.7263 165.639 31.3563 164.901 31.3563H143.93ZM156.415 13.9863V14.2923C156.415 18.1443 159.874 20.3403 163.369 21.1143C163.982 21.2583 164.252 21.8343 164.252 22.4463C164.252 23.5803 163.604 24.2283 162.649 24.2283C162.541 24.2283 162.36 24.2103 162.198 24.1743C159.262 23.6523 155.821 21.7263 154.469 18.9543C153.082 21.8163 149.749 23.6703 146.759 24.2463C146.56 24.2823 146.416 24.3003 146.272 24.3003C145.353 24.3003 144.669 23.5803 144.669 22.5183C144.669 21.9063 144.957 21.2943 145.57 21.1503C149.389 20.2863 152.452 18.1623 152.452 14.3103V13.9683H146.272C145.443 13.9683 145.119 13.1943 145.119 12.4383C145.119 11.6823 145.497 10.9443 146.272 10.9443H162.541C163.315 10.9443 163.694 11.7003 163.694 12.4383C163.694 13.1763 163.369 13.9683 162.541 13.9683H156.415V13.9863Z" fill="#22D663"/>
</g>
<defs>
<clipPath id="clip0_1270_901">
<rect width="166" height="45" fill="white"/>
</clipPath>
</defs>
</svg>
