<svg width="25" height="31" viewBox="0 0 33 41" fill="none" xmlns="http://www.w3.org/2000/svg">
<path d="M14.982 35.7334C15.0991 35.7334 15.1887 35.7679 15.2575 35.83C15.3264 35.8921 15.3609 35.9749 15.3609 36.0922C15.3609 36.2095 15.3264 36.2923 15.2575 36.3475C15.1887 36.4096 15.0991 36.4372 14.982 36.4372H12.5643V37.617H14.5136C14.6307 37.617 14.7203 37.6446 14.7892 37.7067C14.858 37.7688 14.8856 37.8516 14.8856 37.962C14.8856 38.0724 14.8511 38.162 14.7892 38.2241C14.7203 38.2862 14.6307 38.3207 14.5136 38.3207H12.5643V39.6731C12.5643 39.8041 12.5299 39.9007 12.461 39.9766C12.3921 40.0525 12.3026 40.087 12.1855 40.087C12.0684 40.087 11.9651 40.0525 11.9031 39.9766C11.8342 39.9076 11.8066 39.8041 11.8066 39.6731V36.1543C11.8066 36.0232 11.8411 35.9266 11.9168 35.8507C11.9926 35.7748 12.0891 35.7403 12.2199 35.7403H14.9889L14.982 35.7334Z" fill="#22D663"/>
<path d="M17.2344 36.9062C17.3378 36.9062 17.4273 36.9407 17.4893 36.9959C17.5513 37.058 17.5857 37.1408 17.5857 37.2512C17.5857 37.3616 17.5513 37.4444 17.4893 37.5065C17.4273 37.5686 17.3378 37.5962 17.2344 37.5962C16.9245 37.5962 16.6903 37.679 16.5181 37.8515C16.3459 38.024 16.2632 38.3 16.2632 38.6794V39.6937C16.2632 39.811 16.2288 39.9076 16.1668 39.9766C16.1048 40.0456 16.0153 40.0732 15.9051 40.0732C15.7948 40.0732 15.7053 40.0387 15.6433 39.9766C15.5813 39.9076 15.5469 39.8179 15.5469 39.6937V37.2995C15.5469 37.1822 15.5813 37.0925 15.6433 37.0235C15.7053 36.9545 15.7948 36.92 15.9051 36.92C16.0153 36.92 16.1048 36.9545 16.1668 37.0235C16.2288 37.0925 16.2632 37.1822 16.2632 37.2995V37.4168H16.277C16.4699 37.0787 16.7936 36.9062 17.2413 36.9062" fill="#22D663"/>
<path d="M18.094 36.4444C18.2249 36.4444 18.3282 36.403 18.404 36.3271C18.4797 36.2512 18.5211 36.1477 18.5211 36.0166C18.5211 35.8855 18.4797 35.7821 18.404 35.7062C18.3282 35.6303 18.2249 35.5889 18.094 35.5889C17.9631 35.5889 17.8667 35.6303 17.7909 35.7062C17.7152 35.7821 17.6738 35.8855 17.6738 36.0166C17.6738 36.1477 17.7152 36.2443 17.7909 36.3271C17.8667 36.4099 17.97 36.4444 18.094 36.4444Z" fill="#22D663"/>
<path d="M18.1023 36.9268C17.9921 36.9268 17.9026 36.9613 17.8406 37.0302C17.7786 37.0992 17.7441 37.1889 17.7441 37.3062V39.7004C17.7441 39.8177 17.7786 39.9143 17.8406 39.9764C17.9026 40.0454 17.9921 40.0799 18.1023 40.0799C18.2125 40.0799 18.3021 40.0454 18.3641 39.9764C18.4261 39.9074 18.4605 39.8177 18.4605 39.7004V37.3062C18.4605 37.1889 18.4261 37.0992 18.3641 37.0302C18.3021 36.9613 18.2125 36.9268 18.1023 36.9268Z" fill="#22D663"/>
<path d="M21.7517 39.5835C21.6071 39.756 21.4349 39.8871 21.2145 39.9767C21.0009 40.0664 20.753 40.1147 20.4843 40.1147C20.2295 40.1147 20.0022 40.0733 19.7955 39.9974C19.5889 39.9147 19.4098 39.8043 19.2652 39.6663C19.1205 39.5283 19.0034 39.3558 18.9276 39.1557C18.8519 38.9556 18.8105 38.7417 18.8105 38.5002C18.8105 38.2588 18.8519 38.0449 18.9276 37.8448C19.0034 37.6447 19.1205 37.4722 19.2652 37.3342C19.4098 37.1893 19.582 37.0789 19.7886 37.003C19.9884 36.9271 20.2157 36.8857 20.4568 36.8857C20.6772 36.8857 20.8838 36.9202 21.0767 36.9961C21.2696 37.072 21.4349 37.1755 21.5795 37.2997C21.7242 37.4239 21.8275 37.5826 21.9102 37.7551C21.9859 37.9276 22.0273 38.1139 22.0273 38.314V38.3485C22.0273 38.4726 21.9859 38.5692 21.9102 38.6451C21.8344 38.721 21.7311 38.7555 21.6071 38.7555H19.5476C19.5889 38.9832 19.6922 39.1626 19.8644 39.2937C20.0297 39.4248 20.2364 39.4938 20.4843 39.4938C20.6497 39.4938 20.7943 39.4662 20.9252 39.4041C21.056 39.342 21.1525 39.2661 21.2282 39.1764C21.2971 39.0936 21.3867 39.0453 21.49 39.0453C21.5933 39.0453 21.676 39.0729 21.7311 39.135C21.7931 39.1971 21.8206 39.273 21.8206 39.3696C21.8206 39.4455 21.7931 39.5145 21.7448 39.5835M20.4568 37.5136C20.2295 37.5136 20.0366 37.5757 19.8713 37.6999C19.706 37.8241 19.6027 37.9828 19.5545 38.1898H21.3453C21.2971 37.9828 21.1938 37.8172 21.0354 37.6999C20.877 37.5757 20.6841 37.5136 20.4568 37.5136Z" fill="#22D663"/>
<path d="M24.0532 36.8858C24.4803 36.8858 24.804 37.01 25.0244 37.2515C25.2448 37.493 25.3551 37.8517 25.3551 38.3209V39.7008C25.3551 39.8181 25.3206 39.9147 25.2586 39.9837C25.1966 40.0527 25.1071 40.0803 24.9969 40.0803C24.8867 40.0803 24.7971 40.0458 24.7351 39.9837C24.6731 39.9147 24.6387 39.825 24.6387 39.7008V38.3968C24.6387 38.1139 24.5767 37.9 24.4458 37.7552C24.315 37.6103 24.1221 37.5344 23.8672 37.5344C23.6124 37.5344 23.3989 37.6172 23.2473 37.7896C23.0958 37.9621 23.0269 38.1967 23.0269 38.4865V39.6939C23.0269 39.8112 22.9925 39.9078 22.9305 39.9768C22.8685 40.0458 22.7789 40.0734 22.6687 40.0734C22.5585 40.0734 22.469 40.0389 22.407 39.9768C22.345 39.9078 22.3105 39.8181 22.3105 39.6939V37.2998C22.3105 37.1825 22.3381 37.0859 22.407 37.0169C22.469 36.9479 22.5585 36.9203 22.6687 36.9203C22.7789 36.9203 22.8685 36.9548 22.9305 37.0169C22.9925 37.0859 23.0269 37.1756 23.0269 37.2998V37.3205H23.0407C23.1509 37.1825 23.2886 37.079 23.4608 36.9962C23.633 36.9203 23.8259 36.8789 24.0532 36.8789" fill="#22D663"/>
<path d="M28.5651 35.5059C28.6753 35.5059 28.7648 35.5404 28.8337 35.6094C28.8957 35.6783 28.9301 35.768 28.9301 35.8853V39.7008C28.9301 39.8181 28.8957 39.9147 28.8337 39.9837C28.7717 40.0527 28.6822 40.0803 28.5651 40.0803C28.448 40.0803 28.3722 40.0458 28.3102 39.9837C28.2482 39.9147 28.2138 39.825 28.2138 39.7008V39.6663H28.2C28.0829 39.8112 27.9314 39.9216 27.7523 39.9975C27.5732 40.0734 27.3665 40.1148 27.1392 40.1148C26.9119 40.1148 26.7053 40.0734 26.5262 39.9975C26.3402 39.9216 26.1818 39.8112 26.0509 39.6732C25.9201 39.5283 25.8167 39.3627 25.7479 39.1626C25.679 38.9625 25.6445 38.7418 25.6445 38.5003C25.6445 38.2588 25.679 38.038 25.7479 37.8379C25.8167 37.6378 25.9201 37.4653 26.0509 37.3273C26.1818 37.1825 26.3402 37.079 26.5262 37.0031C26.7122 36.9272 26.9119 36.8858 27.1392 36.8858C27.3665 36.8858 27.5732 36.9203 27.7523 37.0031C27.9314 37.079 28.0829 37.1894 28.2 37.3342H28.2207V35.8853C28.2207 35.768 28.2482 35.6783 28.3102 35.6094C28.3722 35.5404 28.4548 35.5059 28.5651 35.5059ZM27.277 39.4731C27.4148 39.4731 27.5387 39.4524 27.6558 39.4041C27.7729 39.3558 27.8694 39.2937 27.952 39.204C28.0347 39.1212 28.0967 39.0177 28.1449 38.9004C28.1931 38.7832 28.2138 38.6521 28.2138 38.5141C28.2138 38.3761 28.1931 38.245 28.1449 38.1208C28.0967 38.0035 28.0347 37.9 27.952 37.8103C27.8694 37.7275 27.766 37.6585 27.6558 37.6102C27.5387 37.5619 27.4148 37.5412 27.277 37.5412C27.0015 37.5412 26.7811 37.6309 26.6089 37.8103C26.4367 37.9897 26.354 38.2243 26.354 38.5141C26.354 38.8039 26.4367 39.0315 26.6089 39.2109C26.7811 39.3903 27.0015 39.48 27.277 39.48" fill="#22D663"/>
<path d="M29.9832 37.9001C29.9832 37.9484 29.997 37.9898 30.0177 38.0174C30.0383 38.0519 30.0797 38.0795 30.1348 38.1002C30.1899 38.1209 30.2656 38.1347 30.3552 38.1485C30.4447 38.1623 30.5618 38.1623 30.6996 38.1623C31.1955 38.1623 31.5468 38.2382 31.7603 38.3969C31.967 38.5556 32.0703 38.7971 32.0703 39.1213C32.0703 39.4318 31.9532 39.6733 31.7121 39.8527C31.471 40.0252 31.1404 40.1149 30.7202 40.1149C30.3896 40.1149 30.121 40.0873 29.9074 40.0252C29.6939 39.97 29.5079 39.8734 29.3426 39.7354C29.2669 39.6733 29.2324 39.5905 29.2324 39.487C29.2324 39.3835 29.26 39.3007 29.322 39.2386C29.384 39.1765 29.4597 39.1489 29.5562 39.1489C29.625 39.1489 29.6939 39.1696 29.7628 39.2179C29.8868 39.3145 30.0245 39.3835 30.1692 39.4249C30.3138 39.4663 30.4792 39.487 30.6651 39.487C30.8855 39.487 31.0509 39.4525 31.1748 39.3904C31.2988 39.3214 31.3608 39.2317 31.3608 39.1075C31.3608 39.004 31.3057 38.9281 31.2024 38.8798C31.0922 38.8315 30.8993 38.804 30.61 38.804C30.1279 38.804 29.7835 38.7281 29.5768 38.5763C29.3702 38.4245 29.2669 38.1899 29.2669 37.8725C29.2669 37.5551 29.3908 37.3205 29.6319 37.1412C29.873 36.9618 30.2036 36.8721 30.6238 36.8721C30.8855 36.8721 31.1129 36.8997 31.2919 36.948C31.471 36.9963 31.6363 37.0791 31.7879 37.1895C31.8843 37.2584 31.9325 37.3481 31.9325 37.4585C31.9325 37.562 31.905 37.6448 31.843 37.7069C31.781 37.769 31.7052 37.7966 31.6088 37.7966C31.5606 37.7966 31.5192 37.7897 31.471 37.769C31.4297 37.7483 31.3884 37.7276 31.3539 37.7C31.168 37.562 30.9407 37.493 30.6582 37.493C30.4516 37.493 30.2794 37.5275 30.1554 37.5965C30.0314 37.6655 29.9694 37.7621 29.9694 37.8794" fill="#22D663"/>
<path d="M15.0297 0.0348174C6.75027 0.586783 0 8.14871 0 16.4627V35.6987C0 37.8375 1.51537 39.7487 3.62999 40.0523C6.26122 40.4318 8.52049 38.3964 8.52049 35.8298V16.3385C8.52049 12.4264 11.3928 9.00425 15.2776 8.58338C18.1224 8.2729 20.6985 9.54242 22.2346 11.6261C23.2953 13.0612 23.867 14.8827 23.6948 16.8422C23.3435 20.7956 19.9064 23.7624 15.9389 23.7624H11.7923V32.2972H15.8149C24.115 32.2972 31.6643 25.5356 32.2084 17.2423C32.8559 7.46565 24.7969 -0.606842 15.0297 0.0348174Z" fill="#22D663"/>
<path d="M20.3961 16.884C20.8851 13.9172 18.3572 11.385 15.3885 11.868C13.5907 12.1647 12.1442 13.6136 11.848 15.4144C11.359 18.3812 13.8869 20.9133 16.8556 20.4304C18.6534 20.1337 20.0999 18.6848 20.3961 16.884Z" fill="#14B6F7"/>
</svg>
