<svg width="18" height="18" viewBox="0 0 18 18" fill="none" xmlns="http://www.w3.org/2000/svg">
<rect width="18" height="18" rx="9" fill="#7B808A"/>
<path fill-rule="evenodd" clip-rule="evenodd" d="M5.4595 5.4595C5.73884 5.18017 6.19174 5.18017 6.47107 5.4595L12.5405 11.5289C12.8198 11.8083 12.8198 12.2612 12.5405 12.5405C12.2612 12.8198 11.8083 12.8198 11.5289 12.5405L5.4595 6.47107C5.18017 6.19174 5.18017 5.73884 5.4595 5.4595Z" fill="white"/>
<path fill-rule="evenodd" clip-rule="evenodd" d="M5.4595 12.5405C5.18017 12.2612 5.18017 11.8083 5.4595 11.5289L11.5289 5.4595C11.8083 5.18017 12.2612 5.18017 12.5405 5.4595C12.8198 5.73884 12.8198 6.19174 12.5405 6.47107L6.47107 12.5405C6.19174 12.8198 5.73884 12.8198 5.4595 12.5405Z" fill="white"/>
</svg>
