<svg width="46" height="46" viewBox="0 0 46 46" fill="none" xmlns="http://www.w3.org/2000/svg">
<rect x="0.5" y="0.5" width="45" height="45" rx="22.5" fill="white"/>
<rect x="0.5" y="0.5" width="45" height="45" rx="22.5" stroke="#E2E8F0"/>
<g clip-path="url(#clip0_1691_97006)">
<path d="M31.75 26.75C31.375 26.75 31.0312 27.0625 31.0312 27.4687V30.25C31.0312 30.5313 30.8125 30.75 30.5312 30.75H15.4687C15.1875 30.75 14.9688 30.5313 14.9688 30.25V27.4687C14.9688 27.0625 14.625 26.75 14.25 26.75C13.875 26.75 13.5312 27.0625 13.5312 27.4687V30.25C13.5312 31.3125 14.375 32.1562 15.4375 32.1562H30.5312C31.5937 32.1562 32.4375 31.3125 32.4375 30.25V27.4687C32.4687 27.0625 32.125 26.75 31.75 26.75Z" fill="#22D663"/>
<path d="M18.9688 19.4688L22.3125 16.2188V27.0313C22.3125 27.4063 22.625 27.75 23.0312 27.75C23.4062 27.75 23.75 27.4375 23.75 27.0313V16.2188L27.0937 19.4688C27.2187 19.5938 27.4062 19.6562 27.5938 19.6562C27.7812 19.6562 27.9688 19.5938 28.0938 19.4375C28.375 19.1563 28.3438 18.7188 28.0938 18.4375L23.5 14.0625C23.2187 13.8125 22.7812 13.8125 22.5312 14.0625L17.9687 18.4688C17.6875 18.75 17.6875 19.1875 17.9687 19.4688C18.25 19.7188 18.6875 19.75 18.9688 19.4688Z" fill="#22D663"/>
</g>
<defs>
<clipPath id="clip0_1691_97006">
<rect width="20" height="20" fill="white" transform="translate(13 13)"/>
</clipPath>
</defs>
</svg>
