<svg width="16" height="16" viewBox="0 0 16 16" fill="none" xmlns="http://www.w3.org/2000/svg">
<g clip-path="url(#clip0_1148_35424)">
<path d="M11.6499 7.92481H8.3749V4.2248C8.3749 3.9248 8.1249 3.6748 7.8249 3.6748C7.5249 3.6748 7.2749 3.9248 7.2749 4.2248V8.4998C7.2749 8.79981 7.5249 9.04981 7.8249 9.04981H11.6499C11.9499 9.04981 12.1999 8.79981 12.1999 8.4998C12.1999 8.19981 11.9749 7.92481 11.6499 7.92481Z" fill="#7B808A"/>
<path d="M8.0002 0.350098C3.8252 0.350098 0.450195 3.7751 0.450195 8.0001C0.450195 12.2251 3.8252 15.6501 8.0002 15.6501C12.1752 15.6501 15.5502 12.2251 15.5502 8.0001C15.5502 3.7751 12.1752 0.350098 8.0002 0.350098ZM8.0002 14.5251C4.4502 14.5251 1.5502 11.6001 1.5502 8.0001C1.5502 4.4001 4.4502 1.4751 8.0002 1.4751C11.5502 1.4751 14.4502 4.4001 14.4502 8.0001C14.4502 11.6001 11.5502 14.5251 8.0002 14.5251Z" fill="#7B808A"/>
</g>
<defs>
<clipPath id="clip0_1148_35424">
<rect width="16" height="16" fill="white"/>
</clipPath>
</defs>
</svg>
