<svg width="48" height="48" viewBox="0 0 48 48" fill="none" xmlns="http://www.w3.org/2000/svg">
<path d="M22.8143 2.03928C13.8223 2.63765 6.5 10.9443 6.5 20.0606V41.1617C6.5 43.5023 8.1523 45.6142 10.4481 45.9486C13.3005 46.3709 15.7529 44.1359 15.7529 41.32V19.9374C15.7529 15.6432 18.8662 11.8947 23.0926 11.4371C26.1885 11.1027 28.9713 12.493 30.641 14.7809C31.7889 16.3648 32.4151 18.3535 32.2238 20.5005C31.8411 24.8475 28.1017 28.0857 23.8057 28.0857H19.301V37.4483H23.6666C32.676 37.4483 40.8679 30.0391 41.4593 20.9405C42.1724 10.1876 33.4239 1.33533 22.8143 2.03928Z" fill="#22D663"/>
<path d="M28.4384 20.2572C28.9381 17.1785 26.3233 14.5491 23.2422 15.065C21.3769 15.3646 19.8613 16.879 19.5616 18.7428C19.0619 21.8215 21.6767 24.4509 24.7578 23.935C26.6231 23.6354 28.122 22.121 28.4384 20.2572Z" fill="#14B6F7"/>
</svg>
